o Body1
v -0.96938275624999992 0.1 4.74282947265625
v -1.8722690499999999 0.1 4.53262890625
v -1.8722690499999999 0 4.53262890625
v -0.96938275624999992 0 4.74282947265625
v -2.68931671875 0.1 4.20002482421875
v -2.68931671875 0 4.20002482421875
v -3.4011835999999995 0.1 3.7595237499999996
v -3.4011835999999995 0 3.7595237499999996
v -3.98852753125 0.1 3.22563220703125
v -3.98852753125 0 3.22563220703125
v -4.43200635 0.1 2.6128567187500003
v -4.43200635 0 2.6128567187500003
v -4.7122778937500005 0.1 1.93570380859375
v -4.7122778937500005 0 1.93570380859375
v -4.8100000000000005 0.1 1.2086800000000002
v -4.8100000000000005 0 1.2086800000000002
v -4.7393066720703132 0.1 0.59433384765624986
v -4.7393066720703132 0 0.59433384765624986
v -4.5357962765625 0.1 0.010468281250000544
v -4.5357962765625 0 0.010468281250000544
v -4.2099210958984372 0.1 -0.53300861328125038
v -4.2099210958984372 0 -0.53300861328125038
v -3.7721334125000006 0.1 -1.0261887499999993
v -3.7721334125000006 0 -1.0261887499999993
v -3.232885508789062 0.1 -1.4591640429687498
v -3.232885508789062 0 -1.4591640429687498
v -2.6026296671874993 0.1 -1.82202640625
v -2.6026296671874993 0 -1.82202640625
v -1.8918181701171868 0.1 -2.10486775390625
v -1.8918181701171868 0 -2.10486775390625
v -1.1109033000000004 0.1 -2.2977800000000004
v -1.1109033000000004 0 -2.2977800000000004
v -1.2429959009765632 0.1 -2.8678351171875
v -1.2429959009765632 0 -2.8678351171875
v -1.4570510015625002 0.1 -3.349889687500001
v -1.4570510015625002 0 -3.349889687500001
v -1.7487547857421877 0.1 -3.7525712890625
v -1.7487547857421877 0 -3.7525712890625
v -2.1137934375 0.1 -4.0845075000000008
v -2.1137934375 0 -4.0845075000000008
v -2.5478531408203127 0.1 -4.3543258984375
v -2.5478531408203127 0 -4.3543258984375
v -3.0466200796875 0.1 -4.5706540624999992
v -3.0466200796875 0 -4.5706540624999992
v -4.2210204000000004 0.1 -4.87735
v -4.2210204000000004 0 -4.87735
v -3.0324927539062507 0.1 -4.8421540429687511
v -3.0324927539062507 0 -4.8421540429687511
v -2.0429902125000003 0.1 -4.7339398437500009
v -2.0429902125000003 0 -4.7339398437500009
v -1.2310579710937502 0.1 -4.5487679101562506
v -1.2310579710937502 0 -4.5487679101562506
v -0.57524122499999919 0.1 -4.2826987500000016
v -0.57524122499999919 0 -4.2826987500000016
v -0.054085169531250088 0.1 -3.9317928710937498
v -0.054085169531250088 0 -3.9317928710937498
v 0.35386499999999987 0.1 -3.49211078125
v 0.35386499999999987 0 -3.49211078125
v 0.67006408828125075 0.1 -2.9597129882812512
v 0.67006408828125075 0 -2.9597129882812512
v 0.91596689999999992 0.1 -2.33066
v 0.91596689999999992 0 -2.33066
v 1.7321412248046872 0.1 -2.15499541015625
v 1.7321412248046872 0 -2.15499541015625
v 2.4777181046875 0.1 -1.8817357812499997
v 2.4777181046875 0 -1.8817357812499997
v 3.1409362353515626 0.1 -1.52157107421875
v 3.1409362353515626 0 -1.52157107421875
v 3.7100343125 0.1 -1.0851912500000003
v 3.7100343125 0 -1.0851912500000003
v 4.173251031835937 0.1 -0.58328626953125
v 4.173251031835937 0 -0.58328626953125
v 4.5188250890625 0.1 -0.026546093750000388
v 4.5188250890625 0 -0.026546093750000388
v 4.7349951798828123 0.1 0.5743393164062498
v 4.7349951798828123 0 0.5743393164062498
v 4.81 0.1 1.2086800000000002
v 4.81 0 1.2086800000000002
v 4.71227789375 0.1 1.9357038085937504
v 4.71227789375 0 1.9357038085937504
v 4.43200635 0.1 2.61285671875
v 4.43200635 0 2.61285671875
v 3.98852753125 0.1 3.22563220703125
v 3.98852753125 0 3.22563220703125
v 3.4011836 0.1 3.75952375
v 3.4011836 0 3.75952375
v 2.68931671875 0.1 4.20002482421875
v 2.68931671875 0 4.20002482421875
v 1.8722690499999999 0.1 4.53262890625
v 1.8722690499999999 0 4.53262890625
v 0.96938275624999992 0.1 4.74282947265625
v 0.96938275624999992 0 4.74282947265625
v 0 0.1 4.81612
v 0 0 4.81612
vn -0.2102005664062494 0 0.90288629375
vn -0.33260408203125014 0 0.8170476687499999
vn -0.44050107421875051 0 0.71186688124999975
vn -0.53389154296874963 0 0.5873439312500004
vn -0.61277548828124973 0 0.44347881875000006
vn -0.67715291015625034 0 0.28027154375000052
vn -0.72702380859374971 0 0.09772210625
vn -0.61434615234375034 0 -0.0706933279296873
vn -0.58386556640624931 0 -0.2035103955078128
vn -0.54347689453125092 0 -0.32587518066406318
vn -0.49318013671874894 0 -0.43778768339843666
vn -0.43297529296875048 0 -0.53924790371093856
vn -0.36286236328125021 0 -0.63025584160156267
vn -0.28284134765624991 0 -0.71081149707031255
vn -0.19291224609375046 0 -0.78091487011718641
vn -0.57005511718749968 0 0.13209260097656284
vn -0.482054570312501 0 0.21405510058593702
vn -0.40268160156249877 0 0.29170378417968745
vn -0.33193621093750103 0 0.36503865175781236
vn -0.26981839843749889 0 0.43405970332031263
vn -0.21632816406249944 0 0.49876693886718737
vn -0.30669593750000068 0 1.1744003203125004
vn 0.035195957031248781 0 -1.1885276460937497
vn 0.1082141992187502 0 -0.98950254140625038
vn 0.18517193359375028 0 -0.8119322414062502
vn 0.26606916015624904 0 -0.655816746093751
vn 0.3509058789062518 0 -0.5211560554687491
vn 0.43968208984374968 0 -0.40795016953124996
vn 0.5323977929687489 0 -0.31619908828125087
vn 0.62905298828125122 0 -0.24590281171874917
vn 0.17566458984375011 0 -0.81617432480468732
vn 0.27325962890625011 0 -0.74557687988281263
vn 0.3601647070312497 0 -0.66321813066406277
vn 0.43637982421874977 0 -0.5690980771484373
vn 0.50190498046875032 0 -0.46321671933593711
vn 0.55674017578124957 0 -0.34557405722656309
vn 0.60088541015625019 0 -0.21617009082031213
vn 0.6343406835937504 0 -0.075004820117187343
vn 0.72702380859375015 0 0.09772210625
vn 0.67715291015624945 0 0.28027154374999963
vn 0.61277548828125017 0 0.44347881875000006
vn 0.53389154296875008 0 0.58734393125
vn 0.44050107421875007 0 0.71186688125000019
vn 0.33260408203125014 0 0.8170476687499999
vn 0.2102005664062494 0 0.90288629375
vn 0.073290527343750078 0 0.96938275624999992
vn -0.073290527343750078 0 0.96938275624999992
vn 0 1 0
g Body1
f 1//1 2//1 3//1 4//1
f 2//2 5//2 6//2 3//2
f 5//3 7//3 8//3 6//3
f 7//4 9//4 10//4 8//4
f 9//5 11//5 12//5 10//5
f 11//6 13//6 14//6 12//6
f 13//7 15//7 16//7 14//7
f 15//8 17//8 18//8 16//8
f 17//9 19//9 20//9 18//9
f 19//10 21//10 22//10 20//10
f 21//11 23//11 24//11 22//11
f 23//12 25//12 26//12 24//12
f 25//13 27//13 28//13 26//13
f 27//14 29//14 30//14 28//14
f 29//15 31//15 32//15 30//15
f 31//16 33//16 34//16 32//16
f 33//17 35//17 36//17 34//17
f 35//18 37//18 38//18 36//18
f 37//19 39//19 40//19 38//19
f 39//20 41//20 42//20 40//20
f 41//21 43//21 44//21 42//21
f 43//22 45//22 46//22 44//22
f 45//23 47//23 48//23 46//23
f 47//24 49//24 50//24 48//24
f 49//25 51//25 52//25 50//25
f 51//26 53//26 54//26 52//26
f 53//27 55//27 56//27 54//27
f 55//28 57//28 58//28 56//28
f 57//29 59//29 60//29 58//29
f 59//30 61//30 62//30 60//30
f 61//31 63//31 64//31 62//31
f 63//32 65//32 66//32 64//32
f 65//33 67//33 68//33 66//33
f 67//34 69//34 70//34 68//34
f 69//35 71//35 72//35 70//35
f 71//36 73//36 74//36 72//36
f 73//37 75//37 76//37 74//37
f 75//38 77//38 78//38 76//38
f 77//39 79//39 80//39 78//39
f 79//40 81//40 82//40 80//40
f 81//41 83//41 84//41 82//41
f 83//42 85//42 86//42 84//42
f 85//43 87//43 88//43 86//43
f 87//44 89//44 90//44 88//44
f 89//45 91//45 92//45 90//45
f 91//46 93//46 94//46 92//46
f 93//47 1//47 4//47 94//47
f 1//48 93//48 91//48
f 1//48 91//48 89//48
f 1//48 89//48 87//48
f 1//48 87//48 85//48
f 1//48 85//48 83//48
f 1//48 83//48 81//48
f 1//48 81//48 79//48
f 1//48 79//48 77//48
f 1//48 77//48 75//48
f 1//48 75//48 73//48
f 1//48 73//48 71//48
f 1//48 71//48 69//48
f 1//48 69//48 67//48
f 1//48 67//48 65//48
f 1//48 65//48 63//48
f 1//48 63//48 61//48
f 1//48 61//48 59//48
f 1//48 59//48 57//48
f 1//48 57//48 55//48
f 1//48 55//48 53//48
f 53//48 51//48 49//48
f 53//48 49//48 47//48
f 53//48 47//48 45//48
f 53//48 45//48 43//48
f 53//48 43//48 41//48
f 53//48 41//48 39//48
f 53//48 39//48 37//48
f 53//48 37//48 35//48
f 53//48 35//48 33//48
f 53//48 33//48 31//48
f 1//48 53//48 31//48
f 1//48 31//48 29//48
f 1//48 29//48 27//48
f 1//48 27//48 25//48
f 1//48 25//48 23//48
f 1//48 23//48 21//48
f 1//48 21//48 19//48
f 1//48 19//48 17//48
f 1//48 17//48 15//48
f 1//48 15//48 13//48
f 1//48 13//48 11//48
f 1//48 11//48 9//48
f 1//48 9//48 7//48
f 1//48 7//48 5//48
f 5//48 2//48 1//48
