o Body7
v -0.010253900000000371 0.1 4.692836
v -0.98115268261718747 0.1 4.6168823085937518
v -0.98115268261718747 0 4.6168823085937518
v -0.010253900000000371 0 4.692836
v -1.8774603921875004 0.1 4.4044702187500029
v -1.8774603921875004 0 4.4044702187500029
v -2.6826725087890635 0.1 4.07898470703125
v -2.6826725087890635 0 4.07898470703125
v -3.3802845124999994 0.1 3.6638107499999997
v -3.3802845124999994 0 3.6638107499999997
v -3.953791883398436 0.1 3.182333324218753
v -3.953791883398436 0 3.182333324218753
v -4.3866901015625 0.1 2.6579374062499959
v -4.3866901015625 0 2.6579374062499959
v -4.6624746470703133 0.1 2.1140079726562462
v -4.6624746470703133 0 2.1140079726562462
v -4.7646409999999992 0.1 1.5739299999999972
v -4.7646409999999992 0 1.5739299999999972
v -4.69124614375 0.1 0.43147137499999388
v -4.69124614375 0 0.43147137499999388
v -4.5041528999999993 0.1 -0.70300875000000573
v -4.5041528999999993 0 -0.70300875000000573
v -4.2239536 0.1 -1.919233000000002
v -4.2239536 0 -1.919233000000002
v -3.7332952000000006 0.1 -0.13596400000000131
v -3.7332952000000006 0 -0.13596400000000131
v -3.3140053 0.1 -1.850054
v -3.3140053 0 -1.850054
v -2.9303996999999997 0.1 -0.69393699999999825
v -2.9303996999999997 0 -0.69393699999999825
v -2.4728221 0.1 -2.968871
v -2.4728221 0 -2.968871
v -1.7059838999999997 0.1 -1.1492399999999989
v -1.7059838999999997 0 -1.1492399999999989
v -1.4606547999999995 0.1 -1.850054
v -1.4606547999999995 0 -1.850054
v -1.0681276999999998 0.1 -1.236263000000001
v -1.0681276999999998 0 -1.236263000000001
v -1.2958501828124991 0.1 -2.3480442187499975
v -1.2958501828124991 0 -2.3480442187499975
v -1.4978903544921876 0.1 -2.8567876367187495
v -1.4978903544921876 0 -2.8567876367187495
v -1.7738454624999998 0.1 -3.3260485000000024
v -1.7738454624999998 0 -3.3260485000000024
v -2.1350622439453124 0.1 -3.7497884882812507
v -2.1350622439453124 0 -3.7497884882812507
v -2.5928874359375005 0.1 -4.1219692812499993
v -2.5928874359375005 0 -4.1219692812499993
v -3.158667775585938 0.1 -4.4365525585937533
v -3.158667775585938 0 -4.4365525585937533
v -3.84375 0.1 -4.6875
v -3.84375 0 -4.6875
v -2.9068240939453123 0.1 -4.6583379101562485
v -2.9068240939453123 0 -4.6583379101562485
v -2.0875314703125003 0.1 -4.5101332187499992
v -2.0875314703125003 0 -4.5101332187499992
v -1.3789855083984381 0.1 -4.2572770429687488
v -1.3789855083984381 0 -4.2572770429687488
v -0.77429958749999983 0.1 -3.9141605000000013
v -0.77429958749999983 0 -3.9141605000000013
v -0.26658708691406297 0.1 -3.49517470703125
v -0.26658708691406297 0 -3.49517470703125
v 0.15103861406250019 0.1 -3.0147107812500025
v 0.15103861406250019 0 -3.0147107812500025
v 0.48546413613281292 0.1 -2.487159839843752
v 0.48546413613281292 0 -2.487159839843752
v 0.7435761000000003 0.1 -1.9269130000000025
v 0.7435761000000003 0 -1.9269130000000025
v 1.1242231999999999 0.1 -2.7584050000000033
v 1.1242231999999999 0 -2.7584050000000033
v 1.5620319 0.1 -1.1612700000000018
v 1.5620319 0 -1.1612700000000018
v 2.1389942 0.1 -3.9121170000000021
v 2.1389942 0 -3.9121170000000021
v 2.5225999 0.1 -0.90576900000000293
v 2.5225999 0 -0.90576900000000293
v 3.0132582 0.1 -2.1980270000000033
v 3.0132582 0 -2.1980270000000033
v 3.4325482 0.1 -0.4504550000000016
v 3.4325482 0 -0.4504550000000016
v 4.0614829299999995 0.1 -2.9345490000000005
v 4.0614829299999995 0 -2.9345490000000005
v 4.3692327125 0.1 -1.1316478749999988
v 4.3692327125 0 -1.1316478749999988
v 4.587151785625 0.1 0.337327453124999
v 4.587151785625 0 0.337327453124999
v 4.69952862 0.1 1.4871850000000002
v 4.69952862 0 1.4871850000000002
v 4.6154198955859371 0.1 1.9372552343750016
v 4.6154198955859371 0 1.9372552343750016
v 4.3521946784375 0.1 2.4469640625000011
v 4.3521946784375 0 2.4469640625000011
v 3.9273235001953122 0.1 2.9794439218749993
v 3.9273235001953122 0 2.9794439218749993
v 3.3582768924999997 0.1 3.4978272500000003
v 3.3582768924999997 0 3.4978272500000003
v 2.6625253869921877 0.1 3.965246484375001
v 2.6625253869921877 0 3.965246484375001
v 1.8575395153124998 0.1 4.3448340624999986
v 1.8575395153124998 0 4.3448340624999986
v 0.96078980910156186 0.1 4.5997224218750006
v 0.96078980910156186 0 4.5997224218750006
v -0.010253200000000184 0.1 4.693044
v -0.010253200000000184 0 4.693044
vn -0.07595369140624797 0 0.97089878261718709
vn -0.21241208984374893 0 0.89630770957031292
vn -0.32548551171875317 0 0.80521211660156311
vn -0.41517395703125004 0 0.6976120037109359
vn -0.48147742578124664 0 0.57350737089843662
vn -0.52439591796875717 0 0.43289821816406437
vn -0.54392943359374968 0 0.27578454550781295
vn -0.540077972656249 0 0.1021663529296859
vn -1.1424586250000033 0 -0.073394856249999307
vn -1.1344801249999996 0 -0.18709324375000058
vn -1.2162242499999962 0 -0.2801992999999996
vn 1.7832690000000007 0 -0.49065839999999916
vn -1.7140899999999988 0 -0.41928990000000077
vn 1.1561170000000018 0 -0.3836056000000001
vn -2.2749340000000018 0 -0.45757759999999958
vn 1.8196310000000011 0 -0.76683820000000047
vn -0.70081400000000116 0 -0.24532910000000019
vn 0.61379099999999909 0 -0.39252709999999968
vn -1.1117812187499965 0 0.22772248281249929
vn -0.508743417968752 0 0.20204017167968846
vn -0.46926086328125294 0 0.2759551080078122
vn -0.42373998828124826 0 0.36121678144531266
vn -0.37218079296874862 0 0.45782519199218807
vn -0.314583277343754 0 0.56578033964843755
vn -0.2509474414062467 0 0.685082224414062
vn 0.02916208984375146 0 -0.93692590605468773
vn 0.14820469140624937 0 -0.819292623632812
vn 0.25285617578125041 0 -0.70854596191406216
vn 0.3431165429687475 0 -0.60468592089843831
vn 0.41898579296875127 0 -0.50771250058593687
vn 0.48046392578124753 0 -0.41762570097656315
vn 0.52755094140625047 0 -0.33442552207031273
vn 0.56024683984374946 0 -0.25811196386718738
vn -0.83149200000000079 0 -0.38064709999999957
vn 1.5971350000000015 0 -0.43780870000000016
vn -2.7508470000000003 0 -0.57696229999999993
vn 3.0063479999999991 0 -0.38360569999999994
vn -1.2922580000000004 0 -0.49065830000000021
vn 1.7475720000000017 0 -0.41928999999999972
vn -2.4840939999999989 0 -0.62893472999999966
vn 1.8029011250000018 0 -0.30774978250000018
vn 1.4689753281249978 0 -0.21791907312500047
vn 1.1498575468750012 0 -0.11237683437499957
vn 0.45007023437500138 0 0.084108724414062586
vn 0.50970882812499951 0 0.26322521714843727
vn 0.5324798593749982 0 0.42487117824218767
vn 0.518383328125001 0 0.56904660769531246
vn 0.46741923437500077 0 0.69575150550781206
vn 0.37958757812499755 0 0.80498587167968783
vn 0.254888359375002 0 0.896749706210938
vn 0.09332157812499986 0 0.971043009101562
vn -0.00020800000000065211 0 7.0000000018666242E-07
vn 0 1 0
g Body7
f 1//1 2//1 3//1 4//1
f 2//2 5//2 6//2 3//2
f 5//3 7//3 8//3 6//3
f 7//4 9//4 10//4 8//4
f 9//5 11//5 12//5 10//5
f 11//6 13//6 14//6 12//6
f 13//7 15//7 16//7 14//7
f 15//8 17//8 18//8 16//8
f 17//9 19//9 20//9 18//9
f 19//10 21//10 22//10 20//10
f 21//11 23//11 24//11 22//11
f 23//12 25//12 26//12 24//12
f 25//13 27//13 28//13 26//13
f 27//14 29//14 30//14 28//14
f 29//15 31//15 32//15 30//15
f 31//16 33//16 34//16 32//16
f 33//17 35//17 36//17 34//17
f 35//18 37//18 38//18 36//18
f 37//19 39//19 40//19 38//19
f 39//20 41//20 42//20 40//20
f 41//21 43//21 44//21 42//21
f 43//22 45//22 46//22 44//22
f 45//23 47//23 48//23 46//23
f 47//24 49//24 50//24 48//24
f 49//25 51//25 52//25 50//25
f 51//26 53//26 54//26 52//26
f 53//27 55//27 56//27 54//27
f 55//28 57//28 58//28 56//28
f 57//29 59//29 60//29 58//29
f 59//30 61//30 62//30 60//30
f 61//31 63//31 64//31 62//31
f 63//32 65//32 66//32 64//32
f 65//33 67//33 68//33 66//33
f 67//34 69//34 70//34 68//34
f 69//35 71//35 72//35 70//35
f 71//36 73//36 74//36 72//36
f 73//37 75//37 76//37 74//37
f 75//38 77//38 78//38 76//38
f 77//39 79//39 80//39 78//39
f 79//40 81//40 82//40 80//40
f 81//41 83//41 84//41 82//41
f 83//42 85//42 86//42 84//42
f 85//43 87//43 88//43 86//43
f 87//44 89//44 90//44 88//44
f 89//45 91//45 92//45 90//45
f 91//46 93//46 94//46 92//46
f 93//47 95//47 96//47 94//47
f 95//48 97//48 98//48 96//48
f 97//49 99//49 100//49 98//49
f 99//50 101//50 102//50 100//50
f 101//51 103//51 104//51 102//51
f 103//52 1//52 4//52 104//52
f 1//53 103//53 101//53
f 1//53 101//53 99//53
f 1//53 99//53 97//53
f 1//53 97//53 95//53
f 1//53 95//53 93//53
f 1//53 93//53 91//53
f 1//53 91//53 89//53
f 1//53 89//53 87//53
f 1//53 87//53 85//53
f 1//53 85//53 83//53
f 83//53 81//53 79//53
f 1//53 83//53 79//53
f 79//53 77//53 75//53
f 1//53 79//53 75//53
f 75//53 73//53 71//53
f 1//53 75//53 71//53
f 1//53 71//53 69//53
f 1//53 69//53 67//53
f 1//53 67//53 65//53
f 1//53 65//53 63//53
f 1//53 63//53 61//53
f 1//53 61//53 59//53
f 1//53 59//53 57//53
f 57//53 55//53 53//53
f 57//53 53//53 51//53
f 57//53 51//53 49//53
f 57//53 49//53 47//53
f 57//53 47//53 45//53
f 57//53 45//53 43//53
f 57//53 43//53 41//53
f 57//53 41//53 39//53
f 57//53 39//53 37//53
f 1//53 57//53 37//53
f 1//53 37//53 35//53
f 1//53 35//53 33//53
f 1//53 33//53 31//53
f 1//53 31//53 29//53
f 29//53 27//53 25//53
f 1//53 29//53 25//53
f 25//53 23//53 21//53
f 1//53 25//53 21//53
f 1//53 21//53 19//53
f 1//53 19//53 17//53
f 1//53 17//53 15//53
f 1//53 15//53 13//53
f 1//53 13//53 11//53
f 1//53 11//53 9//53
f 1//53 9//53 7//53
f 1//53 7//53 5//53
f 5//53 2//53 1//53
