o Body5
v -4.8061460000000018 0.1 0.89794000000000374
v -3.9498320000000007 0.1 0.62341300000000288
v -3.9498320000000007 0 0.62341300000000288
v -4.8061460000000018 0 0.89794000000000374
v -4.8061460000000018 0.1 0.39144800000000224
v -4.8061460000000018 0 0.39144800000000224
v -4.8061460000000018 0.1 -0.70027299999999748
v -4.8061460000000018 0 -0.70027299999999748
v -0.15438600000000236 0.1 -0.70027299999999748
v -0.15438600000000236 0 -0.70027299999999748
v -0.66135800000000167 0.1 -2.2793499999999973
v -0.66135800000000167 0 -2.2793499999999973
v -2.6609000000000016 0.1 -1.8614509999999989
v -2.6609000000000016 0 -1.8614509999999989
v -4.2850060000000028 0.1 -4.3476779999999984
v -4.2850060000000028 0 -4.3476779999999984
v -2.236301000000001 0.1 -2.8606599999999993
v -2.236301000000001 0 -2.8606599999999993
v 0.13957199999999936 0.1 -3.5030280000000005
v 0.13957199999999936 0 -3.5030280000000005
v 1.4538639999999994 0.1 -0.700273000000001
v 1.4538639999999994 0 -0.700273000000001
v 4.749869 0.1 -0.700273000000001
v 4.749869 0 -0.700273000000001
v 4.749869 0.1 3.1558839999999986
v 4.749869 0 3.1558839999999986
v 3.5932069999999996 0.1 3.4240229999999983
v 3.5932069999999996 0 3.4240229999999983
v 4.749869 0.1 3.7091999999999992
v 4.749869 0 3.7091999999999992
v 4.749869 0.1 4.747728
v 4.749869 0 4.747728
v -4.8061460000000018 0.1 4.7477280000000039
v -4.8061460000000018 0 4.7477280000000039
vn -0.27452700000000085 0 -0.85631400000000113
vn -0.23196500000000064 0 0.85631400000000113
vn -1.0917209999999997 0 0
vn 0 0 -4.6517599999999995
vn -1.5790769999999998 0 0.50697199999999931
vn 0.41789899999999847 0 1.999542
vn -2.4862269999999995 0 1.6241060000000012
vn 1.4870179999999991 0 -2.0487050000000018
vn -0.64236800000000116 0 -2.3758730000000003
vn 2.8027549999999994 0 -1.314292
vn 0 0 -3.296005000000001
vn 3.8561569999999996 0 0
vn 0.26813899999999968 0 1.1566620000000008
vn 0.2851770000000009 0 -1.1566620000000008
vn 1.0385280000000012 0 0
vn 3.5527136788005009E-15 0 9.5560150000000021
vn -3.849788 0 0
vn 0 1 0
g Body5
f 1//1 2//1 3//1 4//1
f 2//2 5//2 6//2 3//2
f 5//3 7//3 8//3 6//3
f 7//4 9//4 10//4 8//4
f 9//5 11//5 12//5 10//5
f 11//6 13//6 14//6 12//6
f 13//7 15//7 16//7 14//7
f 15//8 17//8 18//8 16//8
f 17//9 19//9 20//9 18//9
f 19//10 21//10 22//10 20//10
f 21//11 23//11 24//11 22//11
f 23//12 25//12 26//12 24//12
f 25//13 27//13 28//13 26//13
f 27//14 29//14 30//14 28//14
f 29//15 31//15 32//15 30//15
f 31//16 33//16 34//16 32//16
f 33//17 1//17 4//17 34//17
f 1//18 33//18 31//18
f 31//18 29//18 27//18
f 1//18 31//18 27//18
f 1//18 27//18 25//18
f 1//18 25//18 23//18
f 1//18 23//18 21//18
f 17//18 15//18 13//18
f 19//18 17//18 13//18
f 19//18 13//18 11//18
f 21//18 19//18 11//18
f 21//18 11//18 9//18
f 9//18 7//18 5//18
f 21//18 9//18 5//18
f 21//18 5//18 2//18
f 21//18 2//18 1//18
