o Body6
v -0.12961800000000068 0.1 4.78891
v -0.52037778124999789 0.1 4.6875285937500006
v -0.52037778124999789 0 4.6875285937500006
v -0.12961800000000068 0 4.78891
v -0.87882024999999686 0.1 4.45144625
v -0.87882024999999686 0 4.45144625
v -1.2023985937499973 0.1 4.1093157812499985
v -1.2023985937499973 0 4.1093157812499985
v -1.4885659999999987 0.1 3.6897900000000003
v -1.4885659999999987 0 3.6897900000000003
v -1.6973869570312488 0.1 3.45439056640625
v -1.6973869570312488 0 3.45439056640625
v -1.9603546562500007 0.1 3.3248514062499996
v -1.9603546562500007 0 3.3248514062499996
v -2.6006692499999957 0.1 3.25397375
v -2.6006692499999957 0 3.25397375
v -3.3133877187500005 0.1 3.218396718750002
v -3.3133877187500005 0 3.218396718750002
v -3.6668602617187496 0.1 3.1329833398437508
v -3.6668602617187496 0 3.1329833398437508
v -4.002388 0.1 2.95936
v -4.002388 0 2.95936
v -4.2676584960937518 0.1 2.73004212890625
v -4.2676584960937518 0 2.73004212890625
v -4.4295729687500014 0.1 2.4982582812499992
v -4.4295729687500014 0 2.4982582812499992
v -4.5049366445312486 0.1 2.2627218554687509
v -4.5049366445312486 0 2.2627218554687509
v -4.5105547500000007 0.1 2.0221462500000005
v -4.5105547500000007 0 2.0221462500000005
v -4.3797751562500018 0.1 1.5207310937499976
v -4.3797751562500018 0 1.5207310937499976
v -4.1716760000000015 0.1 0.98371999999999993
v -4.1716760000000015 0 0.98371999999999993
v -4.147619652343753 0.1 0.699075624999999
v -4.147619652343753 0 0.699075624999999
v -4.2438030937499995 0.1 0.40769249999999957
v -4.2438030937499995 0 0.40769249999999957
v -4.5953342500000005 0.1 -0.16938500000000012
v -4.5953342500000005 0 -0.16938500000000012
v -4.74990441796875 0.1 -0.44212687500000136
v -4.74990441796875 0 -0.44212687500000136
v -4.82315928125 0.1 -0.69570250000000122
v -4.82315928125 0 -0.69570250000000122
v -4.7647100664062521 0.1 -0.92363562499999929
v -4.7647100664062521 0 -0.92363562499999929
v -4.5241679999999995 0.1 -1.1194500000000005
v -4.5241679999999995 0 -1.1194500000000005
v -3.4541567499999992 0.1 -1.5170899999999961
v -3.4541567499999992 0 -1.5170899999999961
v -3.2820473750000012 0.1 -1.6261861328124994
v -3.2820473750000012 0 -1.6261861328124994
v -3.1453550624999984 0.1 -1.7907178124999952
v -3.1453550624999984 0 -1.7907178124999952
v -3.042709656250004 0.1 -2.0364655859374992
v -3.042709656250004 0 -2.0364655859374992
v -2.9727409999999992 0.1 -2.3892099999999985
v -2.9727409999999992 0 -2.3892099999999985
v -2.8839065546874991 0.1 -2.67966556640625
v -2.8839065546874991 0 -2.67966556640625
v -2.7207110625000013 0.1 -2.8446364062500002
v -2.7207110625000013 0 -2.8446364062500002
v -2.4970896640625 0.1 -2.9062837304687505
v -2.4970896640625 0 -2.9062837304687505
v -2.2269774999999967 0.1 -2.8867687500000017
v -2.2269774999999967 0 -2.8867687500000017
v -0.960324 0.1 -2.44031
v -0.960324 0 -2.44031
v -1.1512360449218768 0.1 -2.9210452734374996
v -1.1512360449218768 0 -2.9210452734374996
v -1.4092994218750015 0.1 -3.3446921875000015
v -1.4092994218750015 0 -3.3446921875000015
v -1.7293934941406235 0.1 -3.7134686328125
v -1.7293934941406235 0 -3.7134686328125
v -2.1063976249999996 0.1 -4.0295925
v -2.1063976249999996 0 -4.0295925
v -2.5351911777343759 0.1 -4.295281679687502
v -2.5351911777343759 0 -4.295281679687502
v -3.0106535156249983 0.1 -4.5127540624999973
v -3.0106535156249983 0 -4.5127540624999973
v -4.0811020000000013 0.1 -4.8119200000000006
v -4.0811020000000013 0 -4.8119200000000006
v -3.0468647343749993 0.1 -4.7780583593749988
v -3.0468647343749993 0 -4.7780583593749988
v -2.1515541875000004 0.1 -4.6768424999999993
v -2.1515541875000004 0 -4.6768424999999993
v -1.384133734375002 0.1 -4.5088260156250008
v -1.384133734375002 0 -4.5088260156250008
v -0.73356675000000138 0.1 -4.2745625000000018
v -0.73356675000000138 0 -4.2745625000000018
v -0.188816609375003 0.1 -3.9746055468749972
v -0.188816609375003 0 -3.9746055468749972
v 0.26115331249999585 0.1 -3.60950875
v 0.26115331249999585 0 -3.60950875
v 0.62737964062499785 0.1 -3.179825703125001
v 0.62737964062499785 0 -3.179825703125001
v 0.92089899999999858 0.1 -2.6861099999999993
v 0.92089899999999858 0 -2.6861099999999993
v 1.4360266250000002 0.1 -2.8117262499999995
v 1.4360266250000002 0 -2.8117262499999995
v 1.6927593906249996 0.1 -2.7977789062499987
v 1.6927593906249996 0 -2.7977789062499987
v 1.9482269999999993 0.1 -2.7046099999999988
v 1.9482269999999993 0 -2.7046099999999988
v 2.4389811718749996 0.1 -2.3350137500000017
v 2.4389811718749996 0 -2.3350137500000017
v 2.7954698749999984 0.1 -1.9696925000000007
v 2.7954698749999984 0 -1.9696925000000007
v 3.2182306406249985 0.1 -1.6949675000000006
v 3.2182306406249985 0 -1.6949675000000006
v 3.5171310253906256 0.1 -1.6185539843749979
v 3.5171310253906256 0 -1.6185539843749979
v 3.9078009999999992 0.1 -1.5971599999999988
v 3.9078009999999992 0 -1.5971599999999988
v 4.2560938886718738 0.1 -1.5367843164062478
v 4.2560938886718738 0 -1.5367843164062478
v 4.4381643593750013 0.1 -1.3575407812499982
v 4.4381643593750013 0 -1.3575407812499982
v 4.4945316191406235 0.1 -1.091380917968749
v 4.4945316191406235 0 -1.091380917968749
v 4.4657148750000033 0.1 -0.7702562499999992
v 4.4657148750000033 0 -0.7702562499999992
v 4.3146062031250025 0.1 -0.090918593750000554
v 4.3146062031250025 0 -0.090918593750000554
v 4.2733526894531231 0.1 0.20339134765625033
v 4.2733526894531231 0 0.20339134765625033
v 4.308992 0.1 0.42486000000000068
v 4.308992 0 0.42486000000000068
v 4.6852743749999988 0.1 1.3004487499999993
v 4.6852743749999988 0 1.3004487499999993
v 4.8022782031250024 0.1 1.7610548437499993
v 4.8022782031250024 0 1.7610548437499993
v 4.791349 0.1 2.13847
v 4.791349 0 2.13847
v 4.546318296875 0.1 2.5896731250000009
v 4.546318296875 0 2.5896731250000009
v 4.0451148749999994 0.1 3.1498849999999994
v 4.0451148749999994 0 3.1498849999999994
v 3.719000591796874 0.1 3.3907258593749994
v 3.719000591796874 0 3.3907258593749994
v 3.3535057656250018 0.1 3.5626468749999987
v 3.3535057656250018 0 3.5626468749999987
v 2.9568512753906226 0.1 3.633590703125
v 2.9568512753906226 0 3.633590703125
v 2.5372580000000013 0.1 3.5715000000000003
v 2.5372580000000013 0 3.5715000000000003
v 2.1513709296875021 0.1 3.4958379882812505
v 2.1513709296875021 0 3.4958379882812505
v 1.8379398125000037 0.1 3.5307795312499994
v 1.8379398125000037 0 3.5307795312499994
v 1.5783449140625017 0.1 3.6513347460937489
v 1.5783449140625017 0 3.6513347460937489
v 1.3539665000000021 0.1 3.8325137500000004
v 1.3539665000000021 0 3.8325137500000004
v 0.93638018749999929 0.1 4.27678359375
v 0.93638018749999929 0 4.27678359375
v 0.43622299999999825 0.1 4.66367
v 0.43622299999999825 0 4.66367
v 0.14709324999999751 0.1 4.766741249999999
v 0.14709324999999751 0 4.766741249999999
v -0.12961800000000068 0.1 4.7888800000000007
v -0.12961800000000068 0 4.7888800000000007
vn -0.10138140624999892 0 0.39075978124999722
vn -0.23608234375000059 0 0.35844246874999897
vn -0.34213046875000153 0 0.32357834375000039
vn -0.41952578124999818 0 0.28616740625000148
vn -0.23539943359375037 0 0.20882095703125003
vn -0.12953916015625033 0 0.26296769921875196
vn -0.070877656249999532 0 0.640314593749995
vn -0.035577031249998115 0 0.71271846875000477
vn -0.085413378906251225 0 0.35347254296874908
vn -0.17362333984375056 0 0.33552773828125027
vn -0.22931787109375001 0 0.265270496093752
vn -0.23178384765625104 0 0.16191447265624959
vn -0.23553642578124823 0 0.075363675781247252
vn -0.24057560546875045 0 0.0056181054687520771
vn -0.50141515625000288 0 -0.13077959374999892
vn -0.53701109374999767 0 -0.20809915625000031
vn -0.28464437500000095 0 -0.024056347656248533
vn -0.29138312499999941 0 0.096183441406246573
vn -0.57707749999999969 0 0.351531156250001
vn -0.27274187500000124 0 0.15457016796874967
vn -0.25357562499999986 0 0.073254863281249527
vn -0.22793312499999807 0 -0.058449214843747654
vn -0.19581437500000121 0 -0.24054206640625253
vn -0.39763999999999555 0 -1.0700112500000003
vn -0.1090961328125033 0 -0.172109374999998
vn -0.16453167968749582 0 -0.1366923125000028
vn -0.24574777343750398 0 -0.10264540624999441
vn -0.35274441406249935 0 -0.069968656250004813
vn -0.29045556640625136 0 -0.088834445312500065
vn -0.16497083984375038 0 -0.16319549218749785
vn -0.0616473242187503 0 -0.22362139843750128
vn 0.019514980468748888 0 -0.27011216406250327
vn 0.44645875000000146 0 -1.2666534999999968
vn -0.48073527343749944 0 0.19091204492187686
vn -0.42364691406250188 0 0.25806337695312465
vn -0.36877644531249842 0 0.32009407226562203
vn -0.31612386718749974 0 0.37700413085937612
vn -0.26568917968750227 0 0.42879355273437625
vn -0.21747238281249537 0 0.47546233789062242
vn -0.29916593750000331 0 1.0704484843750031
vn 0.033861640625001854 0 -1.0342372656250021
vn 0.10121585937499944 0 -0.89531054687499889
vn 0.1680164843749985 0 -0.7674204531249984
vn 0.23426351562499903 0 -0.6505669843750006
vn 0.29995695312500459 0 -0.54475014062499838
vn 0.36509679687499741 0 -0.44996992187499885
vn 0.42968304687499881 0 -0.366226328125002
vn 0.49371570312500168 0 -0.29351935937500073
vn -0.12561625000000021 0 -0.51512762500000164
vn 0.01394734375000084 0 -0.25673276562499936
vn 0.09316890624999985 0 -0.25546760937499968
vn 0.36959624999999718 0 -0.49075417187500037
vn 0.36532125000000093 0 -0.35648870312499881
vn 0.27472500000000011 0 -0.42276076562500009
vn 0.076413515625002759 0 -0.29890038476562708
vn 0.021393984374999064 0 -0.39066997460937358
vn 0.060375683593751006 0 -0.34829288867187458
vn 0.17924353515624958 0 -0.18207047070312754
vn 0.26615986328124919 0 -0.05636725976562218
vn 0.32112466796874983 0 0.028816744140620187
vn 0.67933765624999864 0 0.15110867187500077
vn 0.29430994140625089 0 0.04125351367187946
vn 0.22146865234375035 0 -0.035639310546876857
vn 0.87558874999999858 0 -0.37628237499999884
vn 0.46060609375000006 0 -0.11700382812500365
vn 0.37741515625000055 0 0.010929203125002118
vn 0.45120312500000104 0 0.24503070312499986
vn 0.56021187499999847 0 0.501203421875001
vn 0.240840859375 0 0.32611428320312541
vn 0.17192101562499929 0 0.36549482617187223
vn 0.070943828125001218 0 0.39665449023437915
vn -0.062090703124999536 0 0.4195932753906213
vn -0.075662011718749866 0 0.38588707031249925
vn 0.034941542968748962 0 0.31343111718749839
vn 0.12055521484374943 0 0.25959489843750205
vn 0.18117900390625152 0 0.22437841406249959
vn 0.44426984374999989 0 0.41758631250000278
vn 0.38688640624999948 0 0.500157187500001
vn 0.10307124999999928 0 0.28912975000000074
vn 0.02213875000000165 0 0.27671124999999819
vn 2.9999999998864268E-05 0 0
vn 0 1 0
g Body6
f 1//1 2//1 3//1 4//1
f 2//2 5//2 6//2 3//2
f 5//3 7//3 8//3 6//3
f 7//4 9//4 10//4 8//4
f 9//5 11//5 12//5 10//5
f 11//6 13//6 14//6 12//6
f 13//7 15//7 16//7 14//7
f 15//8 17//8 18//8 16//8
f 17//9 19//9 20//9 18//9
f 19//10 21//10 22//10 20//10
f 21//11 23//11 24//11 22//11
f 23//12 25//12 26//12 24//12
f 25//13 27//13 28//13 26//13
f 27//14 29//14 30//14 28//14
f 29//15 31//15 32//15 30//15
f 31//16 33//16 34//16 32//16
f 33//17 35//17 36//17 34//17
f 35//18 37//18 38//18 36//18
f 37//19 39//19 40//19 38//19
f 39//20 41//20 42//20 40//20
f 41//21 43//21 44//21 42//21
f 43//22 45//22 46//22 44//22
f 45//23 47//23 48//23 46//23
f 47//24 49//24 50//24 48//24
f 49//25 51//25 52//25 50//25
f 51//26 53//26 54//26 52//26
f 53//27 55//27 56//27 54//27
f 55//28 57//28 58//28 56//28
f 57//29 59//29 60//29 58//29
f 59//30 61//30 62//30 60//30
f 61//31 63//31 64//31 62//31
f 63//32 65//32 66//32 64//32
f 65//33 67//33 68//33 66//33
f 67//34 69//34 70//34 68//34
f 69//35 71//35 72//35 70//35
f 71//36 73//36 74//36 72//36
f 73//37 75//37 76//37 74//37
f 75//38 77//38 78//38 76//38
f 77//39 79//39 80//39 78//39
f 79//40 81//40 82//40 80//40
f 81//41 83//41 84//41 82//41
f 83//42 85//42 86//42 84//42
f 85//43 87//43 88//43 86//43
f 87//44 89//44 90//44 88//44
f 89//45 91//45 92//45 90//45
f 91//46 93//46 94//46 92//46
f 93//47 95//47 96//47 94//47
f 95//48 97//48 98//48 96//48
f 97//49 99//49 100//49 98//49
f 99//50 101//50 102//50 100//50
f 101//51 103//51 104//51 102//51
f 103//52 105//52 106//52 104//52
f 105//53 107//53 108//53 106//53
f 107//54 109//54 110//54 108//54
f 109//55 111//55 112//55 110//55
f 111//56 113//56 114//56 112//56
f 113//57 115//57 116//57 114//57
f 115//58 117//58 118//58 116//58
f 117//59 119//59 120//59 118//59
f 119//60 121//60 122//60 120//60
f 121//61 123//61 124//61 122//61
f 123//62 125//62 126//62 124//62
f 125//63 127//63 128//63 126//63
f 127//64 129//64 130//64 128//64
f 129//65 131//65 132//65 130//65
f 131//66 133//66 134//66 132//66
f 133//67 135//67 136//67 134//67
f 135//68 137//68 138//68 136//68
f 137//69 139//69 140//69 138//69
f 139//70 141//70 142//70 140//70
f 141//71 143//71 144//71 142//71
f 143//72 145//72 146//72 144//72
f 145//73 147//73 148//73 146//73
f 147//74 149//74 150//74 148//74
f 149//75 151//75 152//75 150//75
f 151//76 153//76 154//76 152//76
f 153//77 155//77 156//77 154//77
f 155//78 157//78 158//78 156//78
f 157//79 159//79 160//79 158//79
f 159//80 161//80 162//80 160//80
f 161//81 1//81 4//81 162//81
f 161//82 159//82 157//82
f 161//82 157//82 155//82
f 161//82 155//82 153//82
f 161//82 153//82 151//82
f 147//82 145//82 143//82
f 147//82 143//82 141//82
f 147//82 141//82 139//82
f 147//82 139//82 137//82
f 149//82 147//82 137//82
f 149//82 137//82 135//82
f 149//82 135//82 133//82
f 151//82 149//82 133//82
f 151//82 133//82 131//82
f 151//82 131//82 129//82
f 161//82 151//82 129//82
f 161//82 129//82 127//82
f 161//82 127//82 125//82
f 161//82 125//82 123//82
f 161//82 123//82 121//82
f 161//82 121//82 119//82
f 161//82 119//82 117//82
f 161//82 117//82 115//82
f 161//82 115//82 113//82
f 161//82 113//82 111//82
f 161//82 111//82 109//82
f 161//82 109//82 107//82
f 161//82 107//82 105//82
f 161//82 105//82 103//82
f 161//82 103//82 101//82
f 161//82 101//82 99//82
f 161//82 99//82 97//82
f 161//82 97//82 95//82
f 161//82 95//82 93//82
f 161//82 93//82 91//82
f 1//82 161//82 91//82
f 1//82 91//82 89//82
f 89//82 87//82 85//82
f 89//82 85//82 83//82
f 89//82 83//82 81//82
f 89//82 81//82 79//82
f 89//82 79//82 77//82
f 89//82 77//82 75//82
f 89//82 75//82 73//82
f 89//82 73//82 71//82
f 89//82 71//82 69//82
f 89//82 69//82 67//82
f 1//82 89//82 67//82
f 1//82 67//82 65//82
f 1//82 65//82 63//82
f 1//82 63//82 61//82
f 1//82 61//82 59//82
f 1//82 59//82 57//82
f 1//82 57//82 55//82
f 1//82 55//82 53//82
f 1//82 53//82 51//82
f 1//82 51//82 49//82
f 1//82 49//82 47//82
f 1//82 47//82 45//82
f 1//82 45//82 43//82
f 1//82 43//82 41//82
f 1//82 41//82 39//82
f 1//82 39//82 37//82
f 1//82 37//82 35//82
f 1//82 35//82 33//82
f 33//82 31//82 29//82
f 33//82 29//82 27//82
f 33//82 27//82 25//82
f 33//82 25//82 23//82
f 33//82 23//82 21//82
f 33//82 21//82 19//82
f 33//82 19//82 17//82
f 33//82 17//82 15//82
f 33//82 15//82 13//82
f 33//82 13//82 11//82
f 1//82 33//82 11//82
f 1//82 11//82 9//82
f 1//82 9//82 7//82
f 1//82 7//82 5//82
f 5//82 2//82 1//82
