o Body9
v -4.8592939999999984 0.1 1.0956399999999995
v -2.361967 0.1 -0.84778999999999982
v -2.361967 0 -0.84778999999999982
v -4.8592939999999984 0 1.0956399999999995
v -4.498832 0.1 -4.6307000000000009
v -4.498832 0 -4.6307000000000009
v -1.1804580000000016 0.1 -1.7649499999999989
v -1.1804580000000016 0 -1.7649499999999989
v -0.024132999999999072 0.1 -2.6653100000000016
v -0.024132999999999072 0 -2.6653100000000016
v 4.8110299999999988 0.1 1.0956399999999995
v 4.8110299999999988 0 1.0956399999999995
v -0.024132999999999072 0.1 4.8566
v -0.024132999999999072 0 4.8566
vn -1.9434299999999993 0 -2.4973269999999985
vn -3.7829100000000011 0 2.1368650000000002
vn 2.865750000000002 0 -3.3183739999999986
vn -0.90036000000000271 0 -1.1563250000000025
vn 3.7609500000000011 0 -4.8351629999999979
vn 3.7609600000000007 0 4.8351629999999979
vn -3.7609600000000007 0 4.8351609999999994
vn 0 1 0
g Body9
f 1//1 2//1 3//1 4//1
f 2//2 5//2 6//2 3//2
f 5//3 7//3 8//3 6//3
f 7//4 9//4 10//4 8//4
f 9//5 11//5 12//5 10//5
f 11//6 13//6 14//6 12//6
f 13//7 1//7 4//7 14//7
f 1//8 13//8 11//8
f 11//8 9//8 7//8
f 1//8 11//8 7//8
f 7//8 5//8 2//8
f 7//8 2//8 1//8
