o Body1
v -0.95850022617187491 0.1 4.69361771015625
v -1.8512504906250005 0.1 4.485584203125
v -1.8512504906250005 0 4.485584203125
v -0.95850022617187491 0 4.69361771015625
v -2.6591257722656252 0.1 4.15640909765625
v -2.6591257722656252 0 4.15640909765625
v -3.3630010500000012 0.1 3.7204493625
v -3.3630010500000012 0 3.7204493625
v -3.9437513027343751 0.1 3.19206196640625
v -3.9437513027343751 0 3.19206196640625
v -4.382251509375001 0.1 2.585603878125
v -4.382251509375001 0 2.585603878125
v -4.6593766488281254 0.1 1.9154320664062499
v -4.6593766488281254 0 1.9154320664062499
v -4.7560017000000006 0.1 1.1959035
v -4.7560017000000006 0 1.1959035
v -4.6861019742187509 0.1 0.58789095253906254
v -4.6861019742187509 0 0.58789095253906254
v -4.4848762312499986 0.1 0.010044751562499954
v -4.4848762312499986 0 0.010044751562499954
v -4.16265941015625 0.1 -0.5278291658203127
v -4.16265941015625 0 -0.5278291658203127
v -3.7297864500000006 0.1 -1.0159248625000004
v -3.7297864500000006 0 -1.0159248625000004
v -3.1965922898437498 0.1 -1.4444364013671871
v -3.1965922898437498 0 -1.4444364013671871
v -2.57341186875 0.1 -1.8035578453125005
v -2.57341186875 0 -1.8035578453125005
v -1.8705801257812489 0.1 -2.083483257226562
v -1.8705801257812489 0 -2.083483257226562
v -1.0984319999999999 0.1 -2.2744067
v -1.0984319999999999 0 -2.2744067
v -1.2163531410156248 0.1 -2.8384121908203124
v -1.2163531410156248 0 -2.8384121908203124
v -1.3889037218749998 0.1 -3.3142885765625003
v -1.3889037218749998 0 -3.3142885765625003
v -1.6102646542968753 0.1 -3.7095386896484381
v -1.6102646542968753 0 -3.7095386896484381
v -1.8746168500000007 0.1 -4.0316653625
v -1.8746168500000007 0 -4.0316653625
v -2.1761412207031245 0.1 -4.2881714275390621
v -2.1761412207031245 0 -4.2881714275390621
v -2.509018678125 0.1 -4.4865597171875
v -2.509018678125 0 -4.4865597171875
v -3.2455564999999993 0.1 -4.7389943
v -3.2455564999999993 0 -4.7389943
v -2.287889775 0.1 -4.7206476728515625
v -2.287889775 0 -4.7206476728515625
v -1.49801141875 0.1 -4.6295176953125008
v -1.49801141875 0 -4.6295176953125008
v -0.8547074843749991 0.1 -4.4611875857421879
v -0.8547074843749991 0 -4.4611875857421879
v -0.33676402499999991 0.1 -4.2112405625000005
v -0.33676402499999991 0 -4.2112405625000005
v 0.077032906249999478 0.1 -3.8752598439453134
v 0.077032906249999478 0 -3.8752598439453134
v 0.40789725625000006 0.1 -3.4488286484374981
v 0.40789725625000006 0 -3.4488286484374981
v 0.67704297187499929 0.1 -2.9275301943359366
v 0.67704297187499929 0 -2.9275301943359366
v 0.90568399999999993 0.1 -2.3069477000000003
v 0.90568399999999993 0 -2.3069477000000003
v 1.7126957151562499 0.1 -2.1330941330078126
v 1.7126957151562499 0 -2.1330941330078126
v 2.44990253875 0.1 -1.8626516765624999
v 2.44990253875 0 -1.8626516765624999
v 3.10567520046875 0.1 -1.5062000849609376
v 3.10567520046875 0 -1.5062000849609376
v 3.66838443 0.1 -1.0743191125000005
v 3.66838443 0 -1.0743191125000005
v 4.12640095703125 0.1 -0.57758851347656215
v 4.12640095703125 0 -0.57758851347656215
v 4.4680955112500005 0.1 -0.026588042187499994
v 4.4680955112500005 0 -0.026588042187499994
v 4.68183882234375 0.1 0.56810254707031227
v 4.68183882234375 0 0.56810254707031227
v 4.75600162 0.1 1.1959035
v 4.75600162 0 1.1959035
v 4.6593765681640624 0.1 1.9154320664062499
v 4.6593765681640624 0 1.9154320664062499
v 4.3822514278125 0.1 2.585603878125
v 4.3822514278125 0 2.585603878125
v 3.9437512216796877 0.1 3.19206196640625
v 3.9437512216796877 0 3.19206196640625
v 3.3630009725 0.1 3.7204493625
v 3.3630009725 0 3.7204493625
v 2.6591257030078124 0.1 4.15640909765625
v 2.6591257030078124 0 4.15640909765625
v 1.8512504359375002 0.1 4.485584203125
v 1.8512504359375002 0 4.485584203125
v 0.95850019402343811 0.1 4.69361771015625
v 0.95850019402343811 0 4.69361771015625
v 0 0.1 4.76615265
v 0 0 4.76615265
vn -0.20803350703125023 0 0.89275026445312555
vn -0.32917510546874951 0 0.80787528164062472
vn -0.43595973515625008 0 0.703875277734376
vn -0.52838739609375018 0 0.580750252734374
vn -0.60645808828124981 0 0.43850020664062583
vn -0.67017181171875029 0 0.27712513945312445
vn -0.71952856640624985 0 0.096625051171875143
vn -0.60801254746093747 0 -0.0698997257812497
vn -0.57784620097656259 0 -0.20122574296875229
vn -0.53787391738281265 0 -0.32221682109374861
vn -0.48809569667968766 0 -0.43287296015624932
vn -0.42851153886718674 0 -0.53319416015625087
vn -0.35912144394531342 0 -0.62318042109374971
vn -0.27992541191406151 0 -0.70283174296875117
vn -0.19092344277343809 0 -0.772148125781249
vn -0.56400549082031226 0 0.1179211410156249
vn -0.47587638574218794 0 0.17255058085937503
vn -0.39525011308593783 0 0.22136093242187549
vn -0.32212667285156193 0 0.2643521957031254
vn -0.25650606503906204 0 0.30152437070312388
vn -0.19838828964843813 0 0.33287745742187536
vn -0.25243458281249964 0 0.73653782187499939
vn 0.018346627148437378 0 -0.95766672499999927
vn 0.091129977539061713 0 -0.78987835625
vn 0.16833010957031291 0 -0.64330393437500089
vn 0.24994702324218743 0 -0.51794345937499919
vn 0.33598071855468703 0 -0.41379693124999939
vn 0.42643119550781527 0 -0.33086435000000058
vn 0.5212984541015615 0 -0.26914571562499923
vn 0.62058249433593637 0 -0.22864102812500065
vn 0.17385356699218768 0 -0.80701171515624992
vn 0.27044245644531273 0 -0.73720682359375012
vn 0.35645159160156226 0 -0.65577266171874982
vn 0.43188097246093715 0 -0.56270922953125035
vn 0.4967305990234383 0 -0.45801652703124995
vn 0.55100047128906215 0 -0.34169455421875039
vn 0.59469058925781226 0 -0.21374331109374989
vn 0.62780095292968774 0 -0.074162797656249779
vn 0.71952856640624985 0 0.096625051835937725
vn 0.67017181171875029 0 0.27712514035156222
vn 0.60645808828124981 0 0.43850020613281249
vn 0.52838739609375018 0 0.58075024917968765
vn 0.43595973515625008 0 0.70387526949218771
vn 0.32917510546874951 0 0.80787526707031221
vn 0.20803350703125023 0 0.892750241914062
vn 0.072534939843750479 0 0.95850019402343811
vn -0.072534939843750479 0 0.95850022617187491
vn 0 1 0
g Body1
f 1//1 2//1 3//1 4//1
f 2//2 5//2 6//2 3//2
f 5//3 7//3 8//3 6//3
f 7//4 9//4 10//4 8//4
f 9//5 11//5 12//5 10//5
f 11//6 13//6 14//6 12//6
f 13//7 15//7 16//7 14//7
f 15//8 17//8 18//8 16//8
f 17//9 19//9 20//9 18//9
f 19//10 21//10 22//10 20//10
f 21//11 23//11 24//11 22//11
f 23//12 25//12 26//12 24//12
f 25//13 27//13 28//13 26//13
f 27//14 29//14 30//14 28//14
f 29//15 31//15 32//15 30//15
f 31//16 33//16 34//16 32//16
f 33//17 35//17 36//17 34//17
f 35//18 37//18 38//18 36//18
f 37//19 39//19 40//19 38//19
f 39//20 41//20 42//20 40//20
f 41//21 43//21 44//21 42//21
f 43//22 45//22 46//22 44//22
f 45//23 47//23 48//23 46//23
f 47//24 49//24 50//24 48//24
f 49//25 51//25 52//25 50//25
f 51//26 53//26 54//26 52//26
f 53//27 55//27 56//27 54//27
f 55//28 57//28 58//28 56//28
f 57//29 59//29 60//29 58//29
f 59//30 61//30 62//30 60//30
f 61//31 63//31 64//31 62//31
f 63//32 65//32 66//32 64//32
f 65//33 67//33 68//33 66//33
f 67//34 69//34 70//34 68//34
f 69//35 71//35 72//35 70//35
f 71//36 73//36 74//36 72//36
f 73//37 75//37 76//37 74//37
f 75//38 77//38 78//38 76//38
f 77//39 79//39 80//39 78//39
f 79//40 81//40 82//40 80//40
f 81//41 83//41 84//41 82//41
f 83//42 85//42 86//42 84//42
f 85//43 87//43 88//43 86//43
f 87//44 89//44 90//44 88//44
f 89//45 91//45 92//45 90//45
f 91//46 93//46 94//46 92//46
f 93//47 1//47 4//47 94//47
f 1//48 93//48 91//48
f 1//48 91//48 89//48
f 1//48 89//48 87//48
f 1//48 87//48 85//48
f 1//48 85//48 83//48
f 1//48 83//48 81//48
f 1//48 81//48 79//48
f 1//48 79//48 77//48
f 1//48 77//48 75//48
f 1//48 75//48 73//48
f 1//48 73//48 71//48
f 1//48 71//48 69//48
f 1//48 69//48 67//48
f 1//48 67//48 65//48
f 1//48 65//48 63//48
f 1//48 63//48 61//48
f 1//48 61//48 59//48
f 1//48 59//48 57//48
f 1//48 57//48 55//48
f 1//48 55//48 53//48
f 1//48 53//48 51//48
f 51//48 49//48 47//48
f 51//48 47//48 45//48
f 51//48 45//48 43//48
f 51//48 43//48 41//48
f 51//48 41//48 39//48
f 51//48 39//48 37//48
f 51//48 37//48 35//48
f 51//48 35//48 33//48
f 51//48 33//48 31//48
f 1//48 51//48 31//48
f 1//48 31//48 29//48
f 1//48 29//48 27//48
f 1//48 27//48 25//48
f 1//48 25//48 23//48
f 1//48 23//48 21//48
f 1//48 21//48 19//48
f 1//48 19//48 17//48
f 1//48 17//48 15//48
f 1//48 15//48 13//48
f 1//48 13//48 11//48
f 1//48 11//48 9//48
f 1//48 9//48 7//48
f 1//48 7//48 5//48
f 5//48 2//48 1//48
