o Outline5
v 4.75 0.2 3.7887000000000004
v 3.4160160000000008 0.2 3.4605700000000006
v 3.4160160000000008 0 3.4605700000000006
v 4.75 0 3.7887000000000004
v 4.75 0.2 3.1500299999999992
v 4.75 0 3.1500299999999992
v 4.75 0.2 -0.65856999999999921
v 4.75 0 -0.65856999999999921
v 1.4374990000000008 0.2 -0.65856999999999921
v 1.4374990000000008 0 -0.65856999999999921
v 0.11718699999999949 0.2 -3.47888
v 0.11718699999999949 0 -3.47888
v -2.015626000000001 0.2 -2.55115
v -2.015626000000001 0 -2.55115
v -4.0039070000000017 0.2 -4.29138
v -4.0039070000000017 0 -4.29138
v -2.4453129999999987 0.2 -2.002320000000001
v -2.4453129999999987 0 -2.002320000000001
v -0.63476700000000008 0.2 -2.36365
v -0.63476700000000008 0 -2.36365
v -0.087892000000000081 0.2 -0.65856999999999921
v -0.087892000000000081 0 -0.65856999999999921
v -4.806642 0.2 -0.65856999999999921
v -4.806642 0 -0.65856999999999921
v -4.806642 0.2 0.3570600000000006
v -4.806642 0 0.3570600000000006
v -3.8144540000000013 0.2 0.62463999999999942
v -3.8144540000000013 0 0.62463999999999942
v -4.806642 0.2 0.94299
v -4.806642 0 0.94299
v -4.806642 0.2 4.7496399999999994
v -4.806642 0 4.7496399999999994
v 4.7499990000000007 0.2 4.7496399999999994
v 4.7499990000000007 0 4.7496399999999994
v 4.8496089999999992 0.2 4.84924
v 4.8496089999999992 0 4.84924
v -4.90625 0.2 4.8492599999999992
v -4.90625 0 4.8492599999999992
v -4.90625 0.2 0.87074999999999925
v -4.90625 0 0.87074999999999925
v -4.1660159999999991 0.2 0.63246999999999964
v -4.1660159999999991 0 0.63246999999999964
v -4.90625 0.2 0.43324999999999925
v -4.90625 0 0.43324999999999925
v -4.90625 0.2 -0.76010999999999918
v -4.90625 0 -0.76010999999999918
v -0.22460899999999917 0.2 -0.76010999999999918
v -0.22460899999999917 0 -0.76010999999999918
v -0.70117199999999968 0.2 -2.2483900000000006
v -0.70117199999999968 0 -2.2483900000000006
v -2.4902340000000009 0.2 -1.8909699999999994
v -2.4902340000000009 0 -1.8909699999999994
v -4.529297 0.2 -4.88316
v -4.529297 0 -4.88316
v -4.2246090000000009 0.2 -4.6155800000000013
v -4.2246090000000009 0 -4.6155800000000013
v -1.9980469999999997 0.2 -2.6683100000000017
v -1.9980469999999997 0 -2.6683100000000017
v 0.16601600000000083 0.2 -3.6097199999999994
v 0.16601600000000083 0 -3.6097199999999994
v 1.5019530000000003 0.2 -0.76010999999999918
v 1.5019530000000003 0 -0.76010999999999918
v 4.8496089999999992 0.2 -0.76010999999999918
v 4.8496089999999992 0 -0.76010999999999918
v 4.8496089999999992 0.2 3.2301199999999994
v 4.8496089999999992 0 3.2301199999999994
v 3.84375 0.2 3.4625500000000002
v 3.84375 0 3.4625500000000002
v 4.8496089999999992 0.2 3.71059
v 4.8496089999999992 0 3.71059
v 4.8496089999999992 0.2 4.80044
v 4.8496089999999992 0 4.80044
vn -0.32812999999999981 0 1.3339839999999992
vn -0.31054000000000137 0 -1.3339839999999992
vn -3.8085999999999984 0 0
vn 0 0 3.3125009999999993
vn -2.820310000000001 0 1.3203120000000013
vn 0.92773000000000039 0 2.1328130000000005
vn -1.7402300000000004 0 1.9882810000000006
vn 2.2890599999999992 0 -1.5585940000000029
vn -0.36132999999999882 0 -1.8105459999999987
vn 1.7050800000000006 0 -0.546875
vn 0 0 4.71875
vn 1.0156299999999998 0 0
vn 0.26757999999999882 0 -0.99218799999999874
vn 0.31835000000000058 0 0.99218799999999874
vn 3.8066499999999994 0 0
vn 0 0 -9.556641
vn 0.099600000000000577 0 -0.099609999999998422
vn 1.9999999999242846E-05 0 9.755859
vn -3.97851 0 0
vn -0.2382799999999996 0 -0.740234000000001
vn -0.1992200000000004 0 0.740234000000001
vn -1.1933599999999984 0 0
vn 0 0 -4.6816410000000008
vn -1.4882800000000014 0 0.47656300000000051
vn 0.35742000000000118 0 1.7890620000000013
vn -2.9921900000000008 0 2.0390629999999987
vn 0.26757999999999882 0 -0.30468799999999874
vn 1.9472699999999996 0 -2.2265620000000013
vn -0.94140999999999764 0 -2.1640630000000005
vn 2.84961 0 -1.3359369999999995
vn 0 0 -3.3476559999999989
vn 3.9902299999999986 0 0
vn 0.2324300000000008 0 1.0058589999999992
vn 0.24803999999999959 0 -1.0058589999999992
vn 1.0898500000000002 0 0
vn 0.048799999999999955 0 0
vn -0.099600000000000577 0 0.099609999999998422
vn -0.960939999999999 0 -9.9999999925159955E-07
vn 0 1 0
g Outline5
f 1//1 2//1 3//1 4//1
f 2//2 5//2 6//2 3//2
f 5//3 7//3 8//3 6//3
f 7//4 9//4 10//4 8//4
f 9//5 11//5 12//5 10//5
f 11//6 13//6 14//6 12//6
f 13//7 15//7 16//7 14//7
f 15//8 17//8 18//8 16//8
f 17//9 19//9 20//9 18//9
f 19//10 21//10 22//10 20//10
f 21//11 23//11 24//11 22//11
f 23//12 25//12 26//12 24//12
f 25//13 27//13 28//13 26//13
f 27//14 29//14 30//14 28//14
f 29//15 31//15 32//15 30//15
f 31//16 33//16 34//16 32//16
f 33//17 35//17 36//17 34//17
f 35//18 37//18 38//18 36//18
f 37//19 39//19 40//19 38//19
f 39//20 41//20 42//20 40//20
f 41//21 43//21 44//21 42//21
f 43//22 45//22 46//22 44//22
f 45//23 47//23 48//23 46//23
f 47//24 49//24 50//24 48//24
f 49//25 51//25 52//25 50//25
f 51//26 53//26 54//26 52//26
f 53//27 55//27 56//27 54//27
f 55//28 57//28 58//28 56//28
f 57//29 59//29 60//29 58//29
f 59//30 61//30 62//30 60//30
f 61//31 63//31 64//31 62//31
f 63//32 65//32 66//32 64//32
f 65//33 67//33 68//33 66//33
f 67//34 69//34 70//34 68//34
f 69//35 71//35 72//35 70//35
f 71//36 35//36 36//36 72//36
f 35//37 33//37 34//37 36//37
f 33//38 1//38 4//38 34//38
f 1//39 33//39 35//39
f 1//39 35//39 71//39
f 1//39 71//39 69//39
f 1//39 69//39 67//39
f 55//39 53//39 51//39
f 37//39 35//39 33//39
f 37//39 33//39 31//39
f 39//39 37//39 31//39
f 39//39 31//39 29//39
f 41//39 39//39 29//39
f 41//39 29//39 27//39
f 43//39 41//39 27//39
f 43//39 27//39 25//39
f 45//39 43//39 25//39
f 45//39 25//39 23//39
f 47//39 45//39 23//39
f 47//39 23//39 21//39
f 49//39 47//39 21//39
f 49//39 21//39 19//39
f 51//39 49//39 19//39
f 51//39 19//39 17//39
f 51//39 17//39 15//39
f 55//39 51//39 15//39
f 57//39 55//39 15//39
f 57//39 15//39 13//39
f 59//39 57//39 13//39
f 59//39 13//39 11//39
f 61//39 59//39 11//39
f 61//39 11//39 9//39
f 63//39 61//39 9//39
f 63//39 9//39 7//39
f 65//39 63//39 7//39
f 65//39 7//39 5//39
f 67//39 65//39 5//39
f 67//39 5//39 2//39
f 67//39 2//39 1//39
