o Outline5
v -4.9570310000000006 0.2 4.8984380000000005
v -4.9570310000000006 0.2 0.78906199999999949
v -4.9570310000000006 0 0.78906199999999949
v -4.9570310000000006 0 4.8984380000000005
v -4.4785159999999991 0.2 0.63476600000000083
v -4.4785159999999991 0 0.63476600000000083
v -4.9570310000000006 0.2 0.50585899999999917
v -4.9570310000000006 0 0.50585899999999917
v -4.9570310000000006 0.2 -0.84960899999999917
v -4.9570310000000006 0 -0.84960899999999917
v -0.359375 0.2 -0.84960899999999917
v -0.359375 0 -0.84960899999999917
v -0.76367199999999968 0.2 -2.1054689999999994
v -0.76367199999999968 0 -2.1054689999999994
v -2.7304689999999994 0.2 -1.693359000000001
v -2.7304689999999994 0 -1.693359000000001
v -4.8554689999999994 0.2 -4.9472659999999991
v -4.8554689999999994 0 -4.9472659999999991
v -2.2070310000000006 0.2 -3.0234379999999987
v -2.2070310000000006 0 -3.0234379999999987
v 0.22265600000000063 0.2 -3.6816409999999991
v 0.22265600000000063 0 -3.6816409999999991
v 1.5488280000000003 0.2 -0.84960899999999917
v 1.5488280000000003 0 -0.84960899999999917
v 4.9003910000000008 0.2 -0.84960899999999917
v 4.9003910000000008 0 -0.84960899999999917
v 4.9003910000000008 0.2 3.2753910000000008
v 4.9003910000000008 0 3.2753910000000008
v 4.2382810000000006 0.2 3.4296880000000005
v 4.2382810000000006 0 3.4296880000000005
v 4.9003910000000008 0.2 3.5917969999999997
v 4.9003910000000008 0 3.5917969999999997
v 4.9003910000000008 0.2 4.748047
v 4.9003910000000008 0 4.748047
v 4.9003910000000008 0.2 4.8984380000000005
v 4.9003910000000008 0 4.8984380000000005
v 4.5996089999999992 0.2 3.8261719999999997
v 2.9492189999999994 0.2 3.4199219999999997
v 2.9492189999999994 0 3.4199219999999997
v 4.5996089999999992 0 3.8261719999999997
v 4.5996089999999992 0.2 3.0371089999999992
v 4.5996089999999992 0 3.0371089999999992
v 4.5996089999999992 0.2 -0.55078100000000063
v 4.5996089999999992 0 -0.55078100000000063
v 1.359375 0.2 -0.55078100000000063
v 1.359375 0 -0.55078100000000063
v 0.05664100000000083 0.2 -3.3261719999999997
v 0.05664100000000083 0 -3.3261719999999997
v -2.265625 0.2 -2.6972659999999991
v -2.265625 0 -2.6972659999999991
v -3.7167969999999997 0.2 -3.75
v -3.7167969999999997 0 -3.75
v -2.5917969999999997 0.2 -2.0292969999999997
v -2.5917969999999997 0 -2.0292969999999997
v -0.56054699999999968 0.2 -2.453125
v -0.56054699999999968 0 -2.453125
v 0.050781000000000631 0.2 -0.55078100000000063
v 0.050781000000000631 0 -0.55078100000000063
v -4.65625 0.2 -0.55078100000000063
v -4.65625 0 -0.55078100000000063
v -4.65625 0.2 0.27734399999999937
v -4.65625 0 0.27734399999999937
v -3.4199219999999997 0.2 0.61132800000000032
v -3.4199219999999997 0 0.61132800000000032
v -4.65625 0.2 1.0078119999999995
v -4.65625 0 1.0078119999999995
v -4.65625 0.2 4.5976560000000006
v -4.65625 0 4.5976560000000006
v 4.5996089999999992 0.2 4.5976560000000006
v 4.5996089999999992 0 4.5976560000000006
vn -4.109376000000001 0 0
vn -0.15429599999999866 0 -0.47851500000000158
vn -0.12890700000000166 0 0.47851500000000158
vn -1.3554679999999983 0 0
vn 0 0 -4.5976560000000006
vn -1.2558600000000002 0 0.40429699999999968
vn 0.41210999999999842 0 1.9667969999999997
vn -3.2539069999999981 0 2.125
vn 1.9238280000000003 0 -2.6484379999999987
vn -0.65820300000000032 0 -2.4296870000000013
vn 2.832032 0 -1.3261719999999997
vn 0 0 -3.3515630000000005
vn 4.125 0 0
vn 0.15429699999999968 0 0.6621100000000002
vn 0.16210899999999917 0 -0.6621100000000002
vn 1.15625 0 0
vn 0.15039100000000083 0 0
vn 0 0 9.8574220000000015
vn -0.40625 0 1.6503899999999998
vn -0.38281300000000051 0 -1.6503899999999998
vn -3.58789 0 0
vn 0 0 3.2402339999999992
vn -2.7753909999999991 0 1.3027339999999992
vn 0.62890600000000063 0 2.3222660000000008
vn -1.052734000000001 0 1.4511719999999997
vn 1.7207030000000003 0 -1.125
vn -0.42382800000000032 0 -2.03125
vn 1.9023439999999994 0 -0.61132800000000032
vn 0 0 4.7070310000000006
vn 0.828125 0 0
vn 0.33398400000000095 0 -1.2363280000000003
vn 0.39648399999999917 0 1.2363280000000003
vn 3.5898440000000011 0 0
vn 0 0 -9.255859
vn -0.771484000000001 0 0
vn 0 1 0
g Outline5
f 1//1 2//1 3//1 4//1
f 2//2 5//2 6//2 3//2
f 5//3 7//3 8//3 6//3
f 7//4 9//4 10//4 8//4
f 9//5 11//5 12//5 10//5
f 11//6 13//6 14//6 12//6
f 13//7 15//7 16//7 14//7
f 15//8 17//8 18//8 16//8
f 17//9 19//9 20//9 18//9
f 19//10 21//10 22//10 20//10
f 21//11 23//11 24//11 22//11
f 23//12 25//12 26//12 24//12
f 25//13 27//13 28//13 26//13
f 27//14 29//14 30//14 28//14
f 29//15 31//15 32//15 30//15
f 31//16 33//16 34//16 32//16
f 33//17 35//17 36//17 34//17
f 35//18 1//18 4//18 36//18
f 37//19 38//19 39//19 40//19
f 38//20 41//20 42//20 39//20
f 41//21 43//21 44//21 42//21
f 43//22 45//22 46//22 44//22
f 45//23 47//23 48//23 46//23
f 47//24 49//24 50//24 48//24
f 49//25 51//25 52//25 50//25
f 51//26 53//26 54//26 52//26
f 53//27 55//27 56//27 54//27
f 55//28 57//28 58//28 56//28
f 57//29 59//29 60//29 58//29
f 59//30 61//30 62//30 60//30
f 61//31 63//31 64//31 62//31
f 63//32 65//32 66//32 64//32
f 65//33 67//33 68//33 66//33
f 67//34 69//34 70//34 68//34
f 69//35 37//35 40//35 70//35
f 17//36 51//36 49//36
f 19//36 17//36 49//36
f 1//36 35//36 33//36
f 21//36 19//36 49//36
f 21//36 49//36 47//36
f 23//36 21//36 47//36
f 23//36 47//36 45//36
f 25//36 23//36 45//36
f 25//36 45//36 43//36
f 27//36 25//36 43//36
f 27//36 43//36 41//36
f 29//36 27//36 41//36
f 29//36 41//36 38//36
f 31//36 29//36 38//36
f 31//36 38//36 37//36
f 33//36 31//36 37//36
f 33//36 37//36 69//36
f 1//36 33//36 69//36
f 1//36 69//36 67//36
f 1//36 67//36 65//36
f 53//36 51//36 17//36
f 53//36 17//36 15//36
f 55//36 53//36 15//36
f 55//36 15//36 13//36
f 57//36 55//36 13//36
f 57//36 13//36 11//36
f 59//36 57//36 11//36
f 59//36 11//36 9//36
f 61//36 59//36 9//36
f 61//36 9//36 7//36
f 63//36 61//36 7//36
f 63//36 7//36 5//36
f 65//36 63//36 5//36
f 65//36 5//36 2//36
f 65//36 2//36 1//36
