o Outline7
v -1.0027012828125006 0.2 4.7236115624999968
v -1.9153901875 0.2 4.5032890000000023
v -1.9153901875 0 4.5032890000000023
v -1.0027012828125006 0 4.7236115624999968
v -2.7356183984375004 0.2 4.1675526874999989
v -2.7356183984375004 0 4.1675526874999989
v -3.4472658000000003 0.2 3.7421879999999987
v -3.4472658000000003 0 3.7421879999999987
v -4.0339384640625013 0.2 3.250379156250002
v -4.0339384640625013 0 3.250379156250002
v -4.4780694375 0.2 2.7130829999999975
v -4.4780694375 0 2.7130829999999975
v -4.7617790671874989 0.2 2.152741593750001
v -4.7617790671874989 0 2.152741593750001
v -4.8671876999999988 0.2 1.5917970000000032
v -4.8671876999999988 0 1.5917970000000032
v -4.7927563499999977 0.2 0.42900821875000616
v -4.7927563499999977 0 0.42900821875000616
v -4.602838575 0.2 -0.72190374999999563
v -4.602838575 0 -0.72190374999999563
v -4.3183595999999991 0.2 -1.9531249999999965
v -4.3183595999999991 0 -1.9531249999999965
v -4.2714845999999991 0.2 -2.1289059999999971
v -4.2714845999999991 0 -2.1289059999999971
v -3.7773439999999994 0.2 -0.33398399999999739
v -3.7773439999999994 0 -0.33398399999999739
v -3.3574220999999991 0.2 -2.0507809999999971
v -3.3574220999999991 0 -2.0507809999999971
v -2.9765626999999997 0.2 -0.89843799999999874
v -2.9765626999999997 0 -0.89843799999999874
v -2.5195314 0.2 -3.3222659999999991
v -2.5195314 0 -3.3222659999999991
v -1.7265626999999997 0.2 -1.3046879999999987
v -1.7265626999999997 0 -1.3046879999999987
v -1.4902346 0.2 -1.9824219999999997
v -1.4902346 0 -1.9824219999999997
v -1.1796875 0.2 -1.515625
v -1.1796875 0 -1.515625
v -1.6006137750000002 0.2 -2.5756777500000005
v -1.6006137750000002 0 -2.5756777500000005
v -2.1386719000000003 0.2 -3.4472659999999991
v -2.1386719000000003 0 -3.4472659999999991
v -2.4643912874999989 0.2 -3.7570758749999982
v -2.4643912874999989 0 -3.7570758749999982
v -2.9746094000000003 0.2 -4.1367189999999994
v -2.9746094000000003 0 -4.1367189999999994
v -3.5415051999999996 0.2 -4.4723091249999989
v -3.5415051999999996 0 -4.4723091249999989
v -4.03125 0.2 -4.658203
v -4.03125 0 -4.658203
v -4.5605469 0.2 -4.757859
v -4.5605469 0 -4.757859
v -3.4549961640625 0.2 -4.743783999999998
v -3.4549961640625 0 -4.743783999999998
v -2.5011729125000004 0.2 -4.64567675
v -2.5011729125000004 0 -4.64567675
v -1.6097514796875005 0.2 -4.4010123750000041
v -1.6097514796875005 0 -4.4010123750000041
v -0.6914062000000003 0.2 -3.9472659999999991
v -0.6914062000000003 0 -3.9472659999999991
v -0.20644881093750023 0.2 -3.5493278281249978
v -0.20644881093750023 0 -3.5493278281249978
v 0.18147178749999871 0.2 -3.0908036249999995
v 0.18147178749999871 0 -3.0908036249999995
v 0.49086354218749939 0.2 -2.5844363593749975
v 0.49086354218749939 0 -2.5844363593749975
v 0.7402343999999994 0.2 -2.0429689999999994
v 0.7402343999999994 0 -2.0429689999999994
v 1.1484374999999996 0.2 -2.9335939999999994
v 1.1484374999999996 0 -2.9335939999999994
v 1.5742187999999997 0.2 -1.3867189999999994
v 1.5742187999999997 0 -1.3867189999999994
v 2.1757812 0.2 -4.2539060000000006
v 2.1757812 0 -4.2539060000000006
v 2.5761719 0.2 -1.1230469999999997
v 2.5761719 0 -1.1230469999999997
v 3.0585937999999997 0.2 -2.390625
v 3.0585937999999997 0 -2.390625
v 3.4726562 0.2 -0.66406200000000126
v 3.4726562 0 -0.66406200000000126
v 4.1152343999999994 0.2 -3.2011719999999997
v 4.1152343999999994 0 -3.2011719999999997
v 4.15625 0.2 -2.9746090000000009
v 4.15625 0 -2.9746090000000009
v 4.4667968799999995 0.2 -1.1523439999999994
v 4.4667968799999995 0 -1.1523439999999994
v 4.68807875 0.2 0.33328962499999903
v 4.68807875 0 0.33328962499999903
v 4.8027343799999995 0.2 1.5019530000000003
v 4.8027343799999995 0 1.5019530000000003
v 4.716209730625 0.2 1.9759517500000001
v 4.716209730625 0 1.9759517500000001
v 4.445345075 0.2 2.5020132499999974
v 4.445345075 0 2.5020132499999974
v 4.009425076875 0.2 3.0461111249999959
v 4.009425076875 0 3.0461111249999959
v 3.4277344 0.2 3.5742189999999994
v 3.4277344 0 3.5742189999999994
v 2.7173233562499997 0.2 4.052310078125
v 2.7173233562499997 0 4.052310078125
v 1.894668925 0.2 4.4427348749999958
v 1.894668925 0 4.4427348749999958
v 0.97819568124999989 0.2 4.7060307343749983
v 0.97819568124999989 0 4.7060307343749983
v -0.013671800000000012 0.2 4.8027349999999984
v -0.013671800000000012 0 4.8027349999999984
v 0.9627576093750001 0.2 4.5978924218749988
v 1.861240575 0.2 4.3425126250000012
v 1.861240575 0 4.3425126250000012
v 0.9627576093750001 0 4.5978924218749988
v 2.667970453125 0.2 3.9622632656250012
v 2.667970453125 0 3.9622632656250012
v 3.3652344000000003 0.2 3.4941409999999991
v 3.3652344000000003 0 3.4941409999999991
v 3.93439298546875 0.2 2.9747837343750021
v 3.93439298546875 0 2.9747837343750021
v 4.35785484125 0.2 2.4430626250000032
v 4.35785484125 0 2.4430626250000032
v 4.61947912640625 0.2 1.939321953124999
v 4.61947912640625 0 1.939321953124999
v 4.703125 0.2 1.5039060000000006
v 4.703125 0 1.5039060000000006
v 4.58953753125 0.2 0.34853049999999897
v 4.58953753125 0 0.34853049999999897
v 4.36914062 0.2 -1.1347659999999991
v 4.36914062 0 -1.1347659999999991
v 4.09765625 0.2 -2.7246090000000009
v 4.09765625 0 -2.7246090000000009
v 3.4707030999999997 0.2 -0.24609399999999937
v 3.4707030999999997 0 -0.24609399999999937
v 3.0351562000000003 0.2 -2.0507810000000006
v 3.0351562000000003 0 -2.0507810000000006
v 2.5273438 0.2 -0.71093799999999874
v 2.5273438 0 -0.71093799999999874
v 2.1503906 0.2 -3.6503909999999991
v 2.1503906 0 -3.6503909999999991
v 1.5859375 0.2 -0.96093799999999874
v 1.5859375 0 -0.96093799999999874
v 1.125 0.2 -2.6425780000000003
v 1.125 0 -2.6425780000000003
v 0.74804690000000029 0.2 -1.818359000000001
v 0.74804690000000029 0 -1.818359000000001
v 0.70507809999999971 0.2 -1.9296879999999987
v 0.70507809999999971 0 -1.9296879999999987
v 0.455019015625 0.2 -2.4853670781250017
v 0.455019015625 0 -2.4853670781250017
v 0.14019587499999986 0.2 -2.9992191249999962
v 0.14019587499999986 0 -2.9992191249999962
v -0.25546740312500038 0.2 -3.461703859374996
v -0.25546740312500038 0 -3.461703859374996
v -0.74804690000000029 0.2 -3.8632810000000006
v -0.74804690000000029 0 -3.8632810000000006
v -1.3158136812499999 0.2 -4.1768658750000007
v -1.3158136812499999 0 -4.1768658750000007
v -2.0050940749999997 0.2 -4.4247402500000028
v -2.0050940749999997 0 -4.4247402500000028
v -2.8195895562500004 0.2 -4.59433975
v -2.8195895562500004 0 -4.59433975
v -3.7630016000000008 0.2 -4.6731000000000016
v -3.7630016000000008 0 -4.6731000000000016
v -2.9199152 0.2 -4.2207480000000075
v -2.9199152 0 -4.2207480000000075
v -2.4022543125 0.2 -3.8368245000000094
v -2.4022543125 0 -3.8368245000000094
v -2.0605402 0.2 -3.5098110000000062
v -2.0605402 0 -3.5098110000000062
v -1.7234443749999997 0.2 -3.027997281250002
v -1.7234443749999997 0 -3.027997281250002
v -1.4447470000000005 0.2 -2.4951252500000081
v -1.4447470000000005 0 -2.4951252500000081
v -1.218575125 0.2 -1.9114905937500026
v -1.218575125 0 -1.9114905937500026
v -1.0390557999999999 0.2 -1.2773890000000066
v -1.0390557999999999 0 -1.2773890000000066
v -1.0371058 0.2 -1.2753890000000077
v -1.0371058 0 -1.2753890000000077
v -1.0312457999999998 0.2 -1.2617190000000065
v -1.0312457999999998 0 -1.2617190000000065
v -0.96288679999999971 0.2 -0.974609000000008
v -0.96288679999999971 0 -0.974609000000008
v -1.4648399999999997 0.2 -1.7558590000000081
v -1.4648399999999997 0 -1.7558590000000081
v -1.7226523999999994 0.2 -1.0175780000000074
v -1.7226523999999994 0 -1.0175780000000074
v -2.4863242999999997 0.2 -2.9609380000000058
v -2.4863242999999997 0 -2.9609380000000058
v -2.9492149999999997 0.2 -0.50195300000000387
v -2.9492149999999997 0 -0.50195300000000387
v -3.3437462 0.2 -1.6894530000000039
v -3.3437462 0 -1.6894530000000039
v -3.7714806000000003 0.2 0.060546999999996132
v -3.7714806000000003 0 0.060546999999996132
v -4.2578087 0.2 -1.7031250000000036
v -4.2578087 0 -1.7031250000000036
v -4.545710925 0.2 -0.46398462500000193
v -4.545710925 0 -0.46398462500000193
v -4.7072362718750007 0.2 0.54987523437499419
v -4.7072362718750007 0 0.54987523437499419
v -4.7675743 0.2 1.5898439999999958
v -4.7675743 0 1.5898439999999958
v -4.6664872703124995 0.2 2.1199042968749993
v -4.6664872703124995 0 2.1199042968749993
v -4.3927331125 0.2 2.6578578749999977
v -4.3927331125 0 2.6578578749999977
v -3.9616729984375 0.2 3.1793825156249973
v -3.9616729984375 0 3.1793825156249973
v -3.3886681000000003 0.2 3.6601559999999971
v -3.3886681000000003 0 3.6601559999999971
v -2.6899625734374997 0.2 4.0757159999999963
v -2.6899625734374997 0 4.0757159999999963
v -1.8827347374999999 0.2 4.40196225
v -1.8827347374999999 0 4.40196225
v -0.98374700781250013 0.2 4.6151178749999957
v -0.98374700781250013 0 4.6151178749999957
v -0.00976179999999971 0.2 4.6914059999999971
v -0.00976179999999971 0 4.6914059999999971
v -0.0097655999999997078 0.2 4.6914060000000006
v -0.0097655999999997078 0 4.6914060000000006
vn -0.22032256249999449 0 0.9126889046874993
vn -0.33573631250000346 0 0.82022821093750053
vn -0.42536468750000012 0 0.71164740156249984
vn -0.49180884374999678 0 0.58667266406250107
vn -0.53729615625000449 0 0.44413097343749897
vn -0.56034140624999651 0 0.28370962968749858
vn -0.56094459374999772 0 0.1054086328124999
vn -1.1627887812499971 0 -0.074431350000001117
vn -1.1509119687500018 0 -0.18991777499999785
vn -1.2312212500000008 0 -0.28447897500000074
vn -0.17578100000000063 0 -0.046875
vn 1.7949219999999997 0 -0.49414059999999971
vn -1.7167969999999997 0 -0.41992190000000029
vn 1.1523429999999983 0 -0.3808593999999994
vn -2.4238280000000003 0 -0.4570312999999997
vn 2.0175780000000003 0 -0.7929687000000003
vn -0.677734000000001 0 -0.23632809999999971
vn 0.46679699999999968 0 -0.31054709999999996
vn -1.0600527500000005 0 0.42092627500000024
vn -0.87158824999999851 0 0.538058125
vn -0.30980987499999912 0 0.32571938749999862
vn -0.37964312500000119 0 0.51021811250000138
vn -0.33559012499999952 0 0.56689579999999928
vn -0.18589387500000143 0 0.48974480000000042
vn -0.099655999999999523 0 0.52929690000000029
vn 0.014075000000001836 0 -1.1055507359375003
vn 0.0981072499999982 0 -0.95382325156249959
vn 0.24466437499999572 0 -0.89142143281249986
vn 0.45374637500000503 0 -0.91834527968750024
vn 0.39793817187500125 0 -0.48495738906250008
vn 0.45852420312499831 0 -0.38792059843749893
vn 0.506367265625002 0 -0.30939175468750069
vn 0.54146735937499813 0 -0.2493708578125
vn -0.890625 0 -0.40820310000000015
vn 1.546875 0 -0.42578130000000014
vn -2.8671870000000013 0 -0.60156240000000016
vn 3.1308590000000009 0 -0.4003907
vn -1.2675780000000003 0 -0.48242189999999985
vn 1.7265629999999987 0 -0.41406240000000016
vn -2.5371099999999984 0 -0.64257819999999954
vn 0.22656299999999874 0 -0.041015600000000596
vn 1.8222650000000016 0 -0.31054687999999953
vn 1.4856336249999984 0 -0.22128187000000033
vn 1.1686633750000013 0 -0.11465562999999968
vn 0.4739987499999998 0 0.086524649374999818
vn 0.5260614999999973 0 0.27086465562500006
vn 0.54409787499999851 0 0.43591999812499971
vn 0.52810787500000345 0 0.58169067687500009
vn 0.47809107812500073 0 0.71041104375000019
vn 0.39042479687499565 0 0.82265443124999971
vn 0.26329585937500255 0 0.91647324375
vn 0.096704265625000119 0 0.9918674812499999
vn -0.079123437500001614 0 0.98902948281250058
vn -0.25537979687499757 0 -0.898482965625
vn -0.38024935937500004 0 -0.80672987812500008
vn -0.46812226562500214 0 -0.69726394687500015
vn -0.519357265624997 0 -0.56915858546874976
vn -0.531721109374999 0 -0.42346185578124995
vn -0.50374067187500415 0 -0.26162428515625
vn -0.43541595312499837 0 -0.083645873593749975
vn -1.1553755000000017 0 0.11358746874999959
vn -1.483296499999998 0 0.22039691125000083
vn -1.5898430000000019 0 0.27148436999999959
vn 2.4785150000000016 0 0.62695315000000029
vn -1.8046870000000013 0 0.4355468999999994
vn 1.3398430000000019 0 0.50781240000000016
vn -2.9394530000000003 0 0.3769532
vn 2.6894530000000003 0 0.56445310000000015
vn -1.6816400000000016 0 0.4609375
vn 0.82421899999999937 0 0.37695309999999971
vn -0.11132899999999779 0 0.042968800000000584
vn -0.555679078125003 0 0.25005908437499968
vn -0.51385204687499453 0 0.31482314062500016
vn -0.46248473437499982 0 0.39566327812500024
vn -0.4015771406250046 0 0.49257949687499991
vn -0.3135848750000001 0 0.56776678124999957
vn -0.24787437500000209 0 0.68928039374999983
vn -0.16959949999999679 0 0.81449548125000071
vn -0.078760250000001975 0 0.94341204375000043
vn 0.45235199999999409 0 -0.84308640000000068
vn 0.38392349999999809 0 -0.51766088749999994
vn 0.32701350000000318 0 -0.34171411250000006
vn 0.48181371875000423 0 -0.33709582500000046
vn 0.53287203124999394 0 -0.27869737499999925
vn 0.58363465625000543 0 -0.22617187500000036
vn 0.63410159374999608 0 -0.17951932500000023
vn 0.0019999999999988916 0 -0.0019499999999998963
vn 0.013670000000001181 0 -0.0058600000000001984
vn 0.28710999999999842 0 -0.068359000000000059
vn -0.78125 0 0.5019532
vn 0.73828100000000063 0 0.25781239999999972
vn -1.9433599999999984 0 0.76367190000000029
vn 2.458985000000002 0 0.4628907
vn -1.1875 0 0.3945312000000003
vn 1.75 0 0.42773440000000029
vn -1.7636719999999997 0 0.48632809999999971
vn 1.2391403750000016 0 0.28790222499999985
vn 1.0138598593749961 0 0.16152534687500086
vn 1.0399687656250016 0 0.060338028124999
vn 0.53006029687500344 0 -0.10108702968750016
vn 0.53795357812499844 0 -0.27375415781249934
vn 0.52152464062499959 0 -0.43106011406250033
vn 0.48077348437499978 0 -0.57300489843749958
vn 0.41555999999999926 0 -0.69870552656250062
vn 0.32624625000000407 0 -0.8072278359374998
vn 0.2131556249999953 0 -0.89898772968749974
vn 0.076288125000001372 0 -0.97398520781250042
vn 3.5527136788005009E-15 0 3.7999999999982492E-06
vn -0.093513578125001828 0 -0.97252320937499981
vn 0 1 0
g Outline7
f 1//1 2//1 3//1 4//1
f 2//2 5//2 6//2 3//2
f 5//3 7//3 8//3 6//3
f 7//4 9//4 10//4 8//4
f 9//5 11//5 12//5 10//5
f 11//6 13//6 14//6 12//6
f 13//7 15//7 16//7 14//7
f 15//8 17//8 18//8 16//8
f 17//9 19//9 20//9 18//9
f 19//10 21//10 22//10 20//10
f 21//11 23//11 24//11 22//11
f 23//12 25//12 26//12 24//12
f 25//13 27//13 28//13 26//13
f 27//14 29//14 30//14 28//14
f 29//15 31//15 32//15 30//15
f 31//16 33//16 34//16 32//16
f 33//17 35//17 36//17 34//17
f 35//18 37//18 38//18 36//18
f 37//19 39//19 40//19 38//19
f 39//20 41//20 42//20 40//20
f 41//21 43//21 44//21 42//21
f 43//22 45//22 46//22 44//22
f 45//23 47//23 48//23 46//23
f 47//24 49//24 50//24 48//24
f 49//25 51//25 52//25 50//25
f 51//26 53//26 54//26 52//26
f 53//27 55//27 56//27 54//27
f 55//28 57//28 58//28 56//28
f 57//29 59//29 60//29 58//29
f 59//30 61//30 62//30 60//30
f 61//31 63//31 64//31 62//31
f 63//32 65//32 66//32 64//32
f 65//33 67//33 68//33 66//33
f 67//34 69//34 70//34 68//34
f 69//35 71//35 72//35 70//35
f 71//36 73//36 74//36 72//36
f 73//37 75//37 76//37 74//37
f 75//38 77//38 78//38 76//38
f 77//39 79//39 80//39 78//39
f 79//40 81//40 82//40 80//40
f 81//41 83//41 84//41 82//41
f 83//42 85//42 86//42 84//42
f 85//43 87//43 88//43 86//43
f 87//44 89//44 90//44 88//44
f 89//45 91//45 92//45 90//45
f 91//46 93//46 94//46 92//46
f 93//47 95//47 96//47 94//47
f 95//48 97//48 98//48 96//48
f 97//49 99//49 100//49 98//49
f 99//50 101//50 102//50 100//50
f 101//51 103//51 104//51 102//51
f 103//52 105//52 106//52 104//52
f 105//53 1//53 4//53 106//53
f 107//54 108//54 109//54 110//54
f 108//55 111//55 112//55 109//55
f 111//56 113//56 114//56 112//56
f 113//57 115//57 116//57 114//57
f 115//58 117//58 118//58 116//58
f 117//59 119//59 120//59 118//59
f 119//60 121//60 122//60 120//60
f 121//61 123//61 124//61 122//61
f 123//62 125//62 126//62 124//62
f 125//63 127//63 128//63 126//63
f 127//64 129//64 130//64 128//64
f 129//65 131//65 132//65 130//65
f 131//66 133//66 134//66 132//66
f 133//67 135//67 136//67 134//67
f 135//68 137//68 138//68 136//68
f 137//69 139//69 140//69 138//69
f 139//70 141//70 142//70 140//70
f 141//71 143//71 144//71 142//71
f 143//72 145//72 146//72 144//72
f 145//73 147//73 148//73 146//73
f 147//74 149//74 150//74 148//74
f 149//75 151//75 152//75 150//75
f 151//76 153//76 154//76 152//76
f 153//77 155//77 156//77 154//77
f 155//78 157//78 158//78 156//78
f 157//79 159//79 160//79 158//79
f 159//80 161//80 162//80 160//80
f 161//81 163//81 164//81 162//81
f 163//82 165//82 166//82 164//82
f 165//83 167//83 168//83 166//83
f 167//84 169//84 170//84 168//84
f 169//85 171//85 172//85 170//85
f 171//86 173//86 174//86 172//86
f 173//87 175//87 176//87 174//87
f 175//88 177//88 178//88 176//88
f 177//89 179//89 180//89 178//89
f 179//90 181//90 182//90 180//90
f 181//91 183//91 184//91 182//91
f 183//92 185//92 186//92 184//92
f 185//93 187//93 188//93 186//93
f 187//94 189//94 190//94 188//94
f 189//95 191//95 192//95 190//95
f 191//96 193//96 194//96 192//96
f 193//97 195//97 196//97 194//97
f 195//98 197//98 198//98 196//98
f 197//99 199//99 200//99 198//99
f 199//100 201//100 202//100 200//100
f 201//101 203//101 204//101 202//101
f 203//102 205//102 206//102 204//102
f 205//103 207//103 208//103 206//103
f 207//104 209//104 210//104 208//104
f 209//105 211//105 212//105 210//105
f 211//106 213//106 214//106 212//106
f 213//107 215//107 216//107 214//107
f 215//108 217//108 218//108 216//108
f 217//109 107//109 110//109 218//109
f 83//110 127//110 125//110
f 85//110 83//110 125//110
f 1//110 105//110 103//110
f 103//110 101//110 99//110
f 99//110 97//110 95//110
f 95//110 93//110 91//110
f 91//110 89//110 87//110
f 87//110 85//110 125//110
f 87//110 125//110 123//110
f 87//110 123//110 121//110
f 91//110 87//110 121//110
f 91//110 121//110 119//110
f 91//110 119//110 117//110
f 95//110 91//110 117//110
f 95//110 117//110 115//110
f 95//110 115//110 113//110
f 99//110 95//110 113//110
f 99//110 113//110 111//110
f 99//110 111//110 108//110
f 103//110 99//110 108//110
f 103//110 108//110 107//110
f 107//110 217//110 215//110
f 103//110 107//110 215//110
f 1//110 103//110 215//110
f 1//110 215//110 213//110
f 1//110 213//110 211//110
f 181//110 179//110 177//110
f 177//110 175//110 173//110
f 181//110 177//110 173//110
f 173//110 171//110 169//110
f 173//110 169//110 167//110
f 167//110 165//110 163//110
f 163//110 161//110 159//110
f 143//110 141//110 139//110
f 129//110 127//110 83//110
f 129//110 83//110 81//110
f 129//110 81//110 79//110
f 131//110 129//110 79//110
f 131//110 79//110 77//110
f 133//110 131//110 77//110
f 133//110 77//110 75//110
f 135//110 133//110 75//110
f 135//110 75//110 73//110
f 137//110 135//110 73//110
f 137//110 73//110 71//110
f 139//110 137//110 71//110
f 139//110 71//110 69//110
f 143//110 139//110 69//110
f 143//110 69//110 67//110
f 145//110 143//110 67//110
f 147//110 145//110 67//110
f 147//110 67//110 65//110
f 147//110 65//110 63//110
f 149//110 147//110 63//110
f 149//110 63//110 61//110
f 151//110 149//110 61//110
f 151//110 61//110 59//110
f 153//110 151//110 59//110
f 153//110 59//110 57//110
f 155//110 153//110 57//110
f 157//110 155//110 57//110
f 157//110 57//110 55//110
f 159//110 157//110 55//110
f 159//110 55//110 53//110
f 159//110 53//110 51//110
f 159//110 51//110 49//110
f 159//110 49//110 47//110
f 163//110 159//110 47//110
f 163//110 47//110 45//110
f 163//110 45//110 43//110
f 163//110 43//110 41//110
f 167//110 163//110 41//110
f 167//110 41//110 39//110
f 173//110 167//110 39//110
f 173//110 39//110 37//110
f 181//110 173//110 37//110
f 181//110 37//110 35//110
f 183//110 181//110 35//110
f 183//110 35//110 33//110
f 185//110 183//110 33//110
f 185//110 33//110 31//110
f 187//110 185//110 31//110
f 187//110 31//110 29//110
f 189//110 187//110 29//110
f 189//110 29//110 27//110
f 191//110 189//110 27//110
f 191//110 27//110 25//110
f 193//110 191//110 25//110
f 193//110 25//110 23//110
f 195//110 193//110 23//110
f 195//110 23//110 21//110
f 197//110 195//110 21//110
f 197//110 21//110 19//110
f 197//110 19//110 17//110
f 199//110 197//110 17//110
f 199//110 17//110 15//110
f 201//110 199//110 15//110
f 201//110 15//110 13//110
f 203//110 201//110 13//110
f 203//110 13//110 11//110
f 205//110 203//110 11//110
f 205//110 11//110 9//110
f 207//110 205//110 9//110
f 207//110 9//110 7//110
f 209//110 207//110 7//110
f 209//110 7//110 5//110
f 211//110 209//110 5//110
f 1//110 211//110 5//110
f 5//110 2//110 1//110
