o Outline2
v 0.0019530000000003156 0.2 3.5195312000000003
v -0.92773399999999917 0.2 4.70898438
v -0.92773399999999917 0 4.70898438
v 0.0019530000000003156 0 3.5195312000000003
v -0.96093800000000051 0.2 3.4199219000000003
v -0.96093800000000051 0 3.4199219000000003
v -2.6542969999999997 0.2 4.23242188
v -2.6542969999999997 0 4.23242188
v -2.1640620000000013 0.2 3.1875
v -2.1640620000000013 0 3.1875
v -3.96875 0.2 3.5097655999999997
v -3.96875 0 3.5097655999999997
v -2.8964840000000009 0.2 2.2753906
v -2.8964840000000009 0 2.2753906
v -4.9609379999999987 0.2 1.953125
v -4.9609379999999987 0 1.953125
v -3.4589840000000009 0.2 1.0722656000000002
v -3.4589840000000009 0 1.0722656000000002
v -4.7753909999999991 0.2 0.15039059999999971
v -4.7753909999999991 0 0.15039059999999971
v -3.3164060000000006 0.2 -0.2148437999999997
v -3.3164060000000006 0 -0.2148437999999997
v -4.201172 0.2 -1.8144530999999997
v -4.201172 0 -1.8144530999999997
v -2.8125 0.2 -0.90039059999999971
v -2.8125 0 -0.90039059999999971
v -2.6855469999999997 0.2 -2.296875
v -2.6855469999999997 0 -2.296875
v -1.484375 0.2 -1.25
v -1.484375 0 -1.25
v -1.6796879999999987 0.2 -2.7207030999999997
v -1.6796879999999987 0 -2.7207030999999997
v -0.78320300000000032 0.2 -1.5546875
v -0.78320300000000032 0 -1.5546875
v -1.1914060000000006 0.2 -2.9453125
v -1.1914060000000006 0 -2.9453125
v -4.2871090000000009 0.2 -4.2851561999999994
v -4.2871090000000009 0 -4.2851561999999994
v -4.2910159999999991 0.2 -4.2851561999999994
v -4.2910159999999991 0 -4.2851561999999994
v -4.876953 0.2 -4.5390625
v -4.876953 0 -4.5390625
v -4.2597659999999991 0.2 -4.3808594
v -4.2597659999999991 0 -4.3808594
v -0.171875 0.2 -3.3398438000000006
v -0.171875 0 -3.3398438000000006
v 0.859375 0.2 -1.3984375
v 0.859375 0 -1.3984375
v 1.9667969999999997 0.2 -2.5390625
v 1.9667969999999997 0 -2.5390625
v 1.6699219999999997 0.2 -0.984375
v 1.6699219999999997 0 -0.984375
v 3.4042969999999997 0.2 -1.6308594000000003
v 3.4042969999999997 0 -1.6308594000000003
v 2.1308589999999992 0.2 -0.35742190000000029
v 2.1308589999999992 0 -0.35742190000000029
v 4.2597660000000008 0.2 -0.35742190000000029
v 4.2597660000000008 0 -0.35742190000000029
v 2.9902339999999992 0.2 0.31054690000000029
v 2.9902339999999992 0 0.31054690000000029
v 4.9453119999999995 0.2 0.93945309999999971
v 4.9453119999999995 0 0.93945309999999971
v 2.921875 0.2 1.2050781000000002
v 2.921875 0 1.2050781000000002
v 4.654297 0.2 2.6054688
v 4.654297 0 2.6054688
v 2.328125 0.2 1.9492188000000001
v 2.328125 0 1.9492188000000001
v 3.7617189999999994 0.2 3.8730469000000003
v 3.7617189999999994 0 3.8730469000000003
v 1.7753910000000008 0.2 2.78125
v 1.7753910000000008 0 2.78125
v 1.8535160000000008 0.2 4.55664062
v 1.8535160000000008 0 4.55664062
v 0.89648399999999917 0.2 3.2148437999999997
v 0.89648399999999917 0 3.2148437999999997
v 0.59960899999999917 0.2 4.734375
v 0.59960899999999917 0 4.734375
v 0.02148399999999917 0.2 3.3320312000000003
v 0.55664100000000083 0.2 4.42382812
v 0.55664100000000083 0 4.42382812
v 0.02148399999999917 0 3.3320312000000003
v 0.84179699999999968 0.2 2.9648438
v 0.84179699999999968 0 2.9648438
v 1.7382810000000006 0.2 4.22460938
v 1.7382810000000006 0 4.22460938
v 1.6679689999999994 0.2 2.6074219
v 1.6679689999999994 0 2.6074219
v 3.40625 0.2 3.5625
v 3.40625 0 3.5625
v 2.0722660000000008 0.2 1.7753906000000002
v 2.0722660000000008 0 1.7753906000000002
v 4.2109380000000005 0.2 2.3769531
v 4.2109380000000005 0 2.3769531
v 2.6757810000000006 0.2 1.1367188000000001
v 2.6757810000000006 0 1.1367188000000001
v 4.4882810000000006 0.2 0.8984375
v 4.4882810000000006 0 0.8984375
v 2.7324219999999997 0.2 0.3320312000000003
v 2.7324219999999997 0 0.3320312000000003
v 3.8554689999999994 0.2 -0.2578125
v 3.8554689999999994 0 -0.2578125
v 1.890625 0.2 -0.2578125
v 1.890625 0 -0.2578125
v 3.0097660000000008 0.2 -1.3769530999999997
v 3.0097660000000008 0 -1.3769530999999997
v 1.5371089999999992 0.2 -0.828125
v 1.5371089999999992 0 -0.828125
v 1.8066410000000008 0.2 -2.2304687999999997
v 1.8066410000000008 0 -2.2304687999999997
v 0.83593800000000051 0.2 -1.2304687999999997
v 0.83593800000000051 0 -1.2304687999999997
v -0.24023399999999917 0.2 -3.2539061999999994
v -0.24023399999999917 0 -3.2539061999999994
v -3.6777340000000009 0.2 -4.1289061999999994
v -3.6777340000000009 0 -4.1289061999999994
v -1.1074219999999997 0.2 -3.0175780999999997
v -1.1074219999999997 0 -3.0175780999999997
v -0.53906199999999949 0.2 -1.0722655999999997
v -0.53906199999999949 0 -1.0722655999999997
v -1.53125 0.2 -2.3652344000000003
v -1.53125 0 -2.3652344000000003
v -1.349609000000001 0.2 -1
v -1.349609000000001 0 -1
v -2.6015620000000013 0.2 -2.09375
v -2.6015620000000013 0 -2.09375
v -2.7265620000000013 0.2 -0.7226562000000003
v -2.7265620000000013 0 -0.7226562000000003
v -3.9179689999999994 0.2 -1.5078125
v -3.9179689999999994 0 -1.5078125
v -3.1660159999999991 0.2 -0.1484375
v -3.1660159999999991 0 -0.1484375
v -4.5390620000000013 0.2 0.19335940000000029
v -4.5390620000000013 0 0.19335940000000029
v -3.2753909999999991 0.2 1.0800781000000002
v -3.2753909999999991 0 1.0800781000000002
v -4.669922 0.2 1.8984375
v -4.669922 0 1.8984375
v -2.703125 0.2 2.2050781
v -2.703125 0 2.2050781
v -3.7070310000000006 0.2 3.3613280999999997
v -3.7070310000000006 0 3.3613280999999997
v -1.9921879999999987 0.2 3.0546875
v -1.9921879999999987 0 3.0546875
v -2.4453120000000013 0.2 4.02148438
v -2.4453120000000013 0 4.02148438
v -0.86523399999999917 0.2 3.2617187999999997
v -0.86523399999999917 0 3.2617187999999997
v -0.83593800000000051 0.2 4.42773438
v -0.83593800000000051 0 4.42773438
vn 1.18945318 0 0.92968699999999949
vn -1.2890624800000001 0 0.033204000000001344
vn 0.81249998000000012 0 1.6933589999999992
vn -1.0449218800000004 0 -0.49023499999999842
vn 0.32226559999999971 0 1.8046879999999987
vn -1.2343749999999996 0 -1.0722659999999991
vn -0.32226560000000015 0 2.0644539999999978
vn -0.88085939999999985 0 -1.5019539999999978
vn -0.92187500000000044 0 1.3164069999999981
vn -0.3652343999999994 0 -1.4589849999999984
vn -1.5996093 0 0.884765999999999
vn 0.9140625 0 -1.3886719999999997
vn -1.3964844000000003 0 -0.12695300000000032
vn 1.046875 0 -1.2011719999999997
vn -1.4707030999999997 0 0.19531299999999874
vn 1.1660155999999997 0 -0.89648499999999842
vn -1.390625 0 0.40820300000000032
vn -1.3398436999999994 0 3.0957030000000003
vn 0 0 0.0039069999999981064
vn -0.25390630000000058 0 0.58593700000000126
vn 0.15820309999999971 0 -0.61718700000000126
vn 1.0410155999999997 0 -4.0878909999999991
vn 1.9414063000000006 0 -1.03125
vn -1.140625 0 -1.1074219999999997
vn 1.5546875 0 0.296875
vn -0.64648440000000029 0 -1.734375
vn 1.2734375 0 1.2734380000000005
vn 0 0 -2.1289070000000017
vn 0.66796880000000058 0 1.2695320000000017
vn 0.62890619999999942 0 -1.9550780000000003
vn 0.26562500000000044 0 2.0234369999999995
vn 1.4003907 0 -1.7324219999999997
vn -0.65625 0 2.3261719999999997
vn 1.9238281000000002 0 -1.4335939999999994
vn -1.0917969000000003 0 1.9863279999999985
vn 1.7753906199999996 0 -0.078125
vn -1.34179682 0 0.95703200000000166
vn 1.5195312000000003 0 0.296875
vn -1.2148437999999997 0 0.59765599999999885
vn 1.0917969199999993 0 -0.53515700000000166
vn -1.4589843199999995 0 -0.28515599999999885
vn 1.2597655800000003 0 -0.896484000000001
vn -1.6171874800000006 0 0.070312000000001262
vn 0.95507810000000015 0 -1.7382810000000006
vn -1.7871093999999999 0 1.3339839999999992
vn 0.6015625 0 -2.1386719999999997
vn -1.2402343 0 1.5351569999999999
vn -0.23828130000000014 0 -1.8125
vn -0.5664062999999997 0 1.755859000000001
vn -0.5898437000000003 0 -1.1230469999999997
vn 0 0 1.9648439999999994
vn -1.1191405999999997 0 -1.1191410000000008
vn 0.54882809999999971 0 1.4726570000000017
vn -1.4023437999999997 0 -0.26953200000000166
vn 1 0 0.97070300000000032
vn -2.0234373999999997 0 1.0761719999999997
vn -0.875 0 3.4375000000000018
vn 1.1113280999999997 0 -2.5703120000000013
vn 1.9453125 0 -0.5683600000000002
vn -1.2929688000000006 0 0.99218800000000051
vn 1.3652344000000003 0 -0.18164099999999905
vn -1.09375 0 1.2519530000000003
vn 1.3710937999999997 0 0.125
vn -0.7851562999999997 0 1.1914069999999981
vn 1.359375 0 -0.75195300000000032
vn 0.34179690000000029 0 1.3730460000000022
vn 0.88671869999999986 0 -1.2636710000000022
vn 0.81835939999999985 0 1.3945310000000006
vn 0.30664060000000015 0 -1.9667969999999997
vn 1.1562499999999996 0 1.0039060000000006
vn -0.30664059999999971 0 -1.7148430000000019
vn 0.96679688000000041 0 0.45312400000000252
vn -0.75976558000000072 0 -1.5800780000000021
vn 1.1660155800000007 0 -0.029295999999998656
vn -1.09570318 0 -0.85742199999999968
vn 0 1 0
g Outline2
f 1//1 2//1 3//1 4//1
f 2//2 5//2 6//2 3//2
f 5//3 7//3 8//3 6//3
f 7//4 9//4 10//4 8//4
f 9//5 11//5 12//5 10//5
f 11//6 13//6 14//6 12//6
f 13//7 15//7 16//7 14//7
f 15//8 17//8 18//8 16//8
f 17//9 19//9 20//9 18//9
f 19//10 21//10 22//10 20//10
f 21//11 23//11 24//11 22//11
f 23//12 25//12 26//12 24//12
f 25//13 27//13 28//13 26//13
f 27//14 29//14 30//14 28//14
f 29//15 31//15 32//15 30//15
f 31//16 33//16 34//16 32//16
f 33//17 35//17 36//17 34//17
f 35//18 37//18 38//18 36//18
f 37//19 39//19 40//19 38//19
f 39//20 41//20 42//20 40//20
f 41//21 43//21 44//21 42//21
f 43//22 45//22 46//22 44//22
f 45//23 47//23 48//23 46//23
f 47//24 49//24 50//24 48//24
f 49//25 51//25 52//25 50//25
f 51//26 53//26 54//26 52//26
f 53//27 55//27 56//27 54//27
f 55//28 57//28 58//28 56//28
f 57//29 59//29 60//29 58//29
f 59//30 61//30 62//30 60//30
f 61//31 63//31 64//31 62//31
f 63//32 65//32 66//32 64//32
f 65//33 67//33 68//33 66//33
f 67//34 69//34 70//34 68//34
f 69//35 71//35 72//35 70//35
f 71//36 73//36 74//36 72//36
f 73//37 75//37 76//37 74//37
f 75//38 77//38 78//38 76//38
f 77//39 1//39 4//39 78//39
f 79//40 80//40 81//40 82//40
f 80//41 83//41 84//41 81//41
f 83//42 85//42 86//42 84//42
f 85//43 87//43 88//43 86//43
f 87//44 89//44 90//44 88//44
f 89//45 91//45 92//45 90//45
f 91//46 93//46 94//46 92//46
f 93//47 95//47 96//47 94//47
f 95//48 97//48 98//48 96//48
f 97//49 99//49 100//49 98//49
f 99//50 101//50 102//50 100//50
f 101//51 103//51 104//51 102//51
f 103//52 105//52 106//52 104//52
f 105//53 107//53 108//53 106//53
f 107//54 109//54 110//54 108//54
f 109//55 111//55 112//55 110//55
f 111//56 113//56 114//56 112//56
f 113//57 115//57 116//57 114//57
f 115//58 117//58 118//58 116//58
f 117//59 119//59 120//59 118//59
f 119//60 121//60 122//60 120//60
f 121//61 123//61 124//61 122//61
f 123//62 125//62 126//62 124//62
f 125//63 127//63 128//63 126//63
f 127//64 129//64 130//64 128//64
f 129//65 131//65 132//65 130//65
f 131//66 133//66 134//66 132//66
f 133//67 135//67 136//67 134//67
f 135//68 137//68 138//68 136//68
f 137//69 139//69 140//69 138//69
f 139//70 141//70 142//70 140//70
f 141//71 143//71 144//71 142//71
f 143//72 145//72 146//72 144//72
f 145//73 147//73 148//73 146//73
f 147//74 149//74 150//74 148//74
f 149//75 79//75 82//75 150//75
f 43//76 115//76 113//76
f 45//76 43//76 113//76
f 47//76 45//76 113//76
f 47//76 113//76 111//76
f 49//76 47//76 111//76
f 49//76 111//76 109//76
f 51//76 49//76 109//76
f 51//76 109//76 107//76
f 53//76 51//76 107//76
f 53//76 107//76 105//76
f 55//76 53//76 105//76
f 55//76 105//76 103//76
f 57//76 55//76 103//76
f 57//76 103//76 101//76
f 59//76 57//76 101//76
f 59//76 101//76 99//76
f 61//76 59//76 99//76
f 61//76 99//76 97//76
f 63//76 61//76 97//76
f 63//76 97//76 95//76
f 65//76 63//76 95//76
f 65//76 95//76 93//76
f 67//76 65//76 93//76
f 67//76 93//76 91//76
f 69//76 67//76 91//76
f 69//76 91//76 89//76
f 71//76 69//76 89//76
f 71//76 89//76 87//76
f 73//76 71//76 87//76
f 73//76 87//76 85//76
f 75//76 73//76 85//76
f 75//76 85//76 83//76
f 77//76 75//76 83//76
f 77//76 83//76 80//76
f 1//76 77//76 80//76
f 1//76 80//76 79//76
f 1//76 79//76 149//76
f 115//76 43//76 41//76
f 117//76 115//76 41//76
f 41//76 39//76 37//76
f 117//76 41//76 37//76
f 117//76 37//76 35//76
f 119//76 117//76 35//76
f 119//76 35//76 33//76
f 121//76 119//76 33//76
f 121//76 33//76 31//76
f 123//76 121//76 31//76
f 123//76 31//76 29//76
f 125//76 123//76 29//76
f 125//76 29//76 27//76
f 127//76 125//76 27//76
f 127//76 27//76 25//76
f 129//76 127//76 25//76
f 129//76 25//76 23//76
f 131//76 129//76 23//76
f 131//76 23//76 21//76
f 133//76 131//76 21//76
f 133//76 21//76 19//76
f 135//76 133//76 19//76
f 135//76 19//76 17//76
f 137//76 135//76 17//76
f 137//76 17//76 15//76
f 139//76 137//76 15//76
f 139//76 15//76 13//76
f 141//76 139//76 13//76
f 141//76 13//76 11//76
f 143//76 141//76 11//76
f 143//76 11//76 9//76
f 145//76 143//76 9//76
f 145//76 9//76 7//76
f 147//76 145//76 7//76
f 147//76 7//76 5//76
f 149//76 147//76 5//76
f 149//76 5//76 2//76
f 149//76 2//76 1//76
