o Outline9
v 4.7304689999999994 0.2 1.0953400000000002
v -0.023437999999998738 0.2 -2.6019299999999994
v -0.023437999999998738 0 -2.6019299999999994
v 4.7304689999999994 0 1.0953400000000002
v -1.1816409999999991 0.2 -1.699580000000001
v -1.1816409999999991 0 -1.699580000000001
v -4.314453 0.2 -4.40466
v -4.314453 0 -4.40466
v -2.296875 0.2 -0.83435000000000059
v -2.296875 0 -0.83435000000000059
v -4.7773439999999994 0.2 1.0953400000000002
v -4.7773439999999994 0 1.0953400000000002
v -0.023437999999998738 0.2 4.7945600000000006
v -0.023437999999998738 0 4.7945600000000006
v -0.023437999999998738 0.2 4.9195600000000006
v -0.023437999999998738 0 4.9195600000000006
v -4.9414030000000011 0.2 1.0953799999999987
v -4.9414030000000011 0 1.0953799999999987
v -2.4257780000000011 0.2 -0.86165000000000092
v -2.4257780000000011 0 -0.86165000000000092
v -4.683591 0.2 -4.8557899999999989
v -4.683591 0 -4.8557899999999989
v -1.1796849999999992 0.2 -1.8304000000000009
v -1.1796849999999992 0 -1.8304000000000009
v -0.023434999999999206 0.2 -2.7288400000000017
v -0.023434999999999206 0 -2.7288400000000017
v 4.892581 0.2 1.0953799999999987
v 4.892581 0 1.0953799999999987
v 0.0058620000000004779 0.2 4.8961599999999983
v 0.0058620000000004779 0 4.8961599999999983
vn -3.6972699999999996 0 4.7539069999999981
vn 0.90234999999999843 0 1.1582030000000003
vn -2.7050799999999988 0 3.1328120000000013
vn 3.5703099999999992 0 -2.0175780000000003
vn 1.9296900000000008 0 2.4804689999999994
vn 3.6992200000000004 0 -4.7539060000000006
vn 0.125 0 0
vn -3.8241800000000019 0 4.9179650000000024
vn -1.9570299999999996 0 -2.515625
vn -3.994139999999998 0 2.2578129999999987
vn 3.025389999999998 0 -3.5039060000000006
vn -0.89844000000000079 0 -1.15625
vn 3.8242200000000004 0 -4.9160159999999991
vn 3.8007799999999996 0 4.8867189999999994
vn 0.023400000000002308 0 0.029299999999999216
vn -0.125 0 0
vn -3.6992200000000004 0 -4.7539069999999981
vn 0 1 0
g Outline9
f 1//1 2//1 3//1 4//1
f 2//2 5//2 6//2 3//2
f 5//3 7//3 8//3 6//3
f 7//4 9//4 10//4 8//4
f 9//5 11//5 12//5 10//5
f 11//6 13//6 14//6 12//6
f 13//7 15//7 16//7 14//7
f 15//8 17//8 18//8 16//8
f 17//9 19//9 20//9 18//9
f 19//10 21//10 22//10 20//10
f 21//11 23//11 24//11 22//11
f 23//12 25//12 26//12 24//12
f 25//13 27//13 28//13 26//13
f 27//14 29//14 30//14 28//14
f 29//15 15//15 16//15 30//15
f 15//16 13//16 14//16 16//16
f 13//17 1//17 4//17 14//17
f 1//18 13//18 15//18
f 1//18 15//18 29//18
f 1//18 29//18 27//18
f 1//18 27//18 25//18
f 17//18 15//18 13//18
f 17//18 13//18 11//18
f 19//18 17//18 11//18
f 19//18 11//18 9//18
f 21//18 19//18 9//18
f 21//18 9//18 7//18
f 23//18 21//18 7//18
f 23//18 7//18 5//18
f 25//18 23//18 5//18
f 25//18 5//18 2//18
f 25//18 2//18 1//18
