o Outline2
v 0.029296999999999684 0.2 4.09960938
v -1.0332030000000003 0.2 4.77929688
v -1.0332030000000003 0 4.77929688
v 0.029296999999999684 0 4.09960938
v -1.4882810000000006 0.2 3.9121094000000003
v -1.4882810000000006 0 3.9121094000000003
v -2.8964840000000009 0.2 4.328125
v -2.8964840000000009 0 4.328125
v -2.8964840000000009 0.2 3.5976562000000003
v -2.8964840000000009 0 3.5976562000000003
v -4.2226560000000006 0.2 3.3652344000000003
v -4.2226560000000006 0 3.3652344000000003
v -3.6933590000000009 0.2 2.3769531
v -3.6933590000000009 0 2.3769531
v -4.951172 0.2 1.7480468999999999
v -4.951172 0 1.7480468999999999
v -4.263672 0.2 0.9453125
v -4.263672 0 0.9453125
v -4.9335939999999994 0.2 0.3164062000000003
v -4.9335939999999994 0 0.3164062000000003
v -4.0273439999999994 0.2 -0.0625
v -4.0273439999999994 0 -0.0625
v -4.919922 0.2 -1.0527344000000003
v -4.919922 0 -1.0527344000000003
v -3.5566409999999991 0.2 -1.0527344000000003
v -3.5566409999999991 0 -1.0527344000000003
v -3.7773439999999994 0.2 -2.40625
v -3.7773439999999994 0 -2.40625
v -2.3535159999999991 0.2 -1.5175780999999997
v -2.3535159999999991 0 -1.5175780999999997
v -2.15625 0.2 -2.6640625
v -2.15625 0 -2.6640625
v -0.85546899999999937 0.2 -1.796875
v -0.85546899999999937 0 -1.796875
v -1.3574219999999997 0.2 -3.0566405999999997
v -1.3574219999999997 0 -3.0566405999999997
v -4.7246090000000009 0.2 -4.8320311999999994
v -4.7246090000000009 0 -4.8320311999999994
v 0.044921999999999684 0.2 -3.5878905999999997
v 0.044921999999999684 0 -3.5878905999999997
v 0.96093800000000051 0.2 -1.7539062000000003
v 0.96093800000000051 0 -1.7539062000000003
v 2.0703119999999995 0.2 -2.9550780999999997
v 2.0703119999999995 0 -2.9550780999999997
v 2.2734380000000005 0.2 -1.7851562000000003
v 2.2734380000000005 0 -1.7851562000000003
v 3.6914060000000006 0.2 -1.9042969000000003
v 3.6914060000000006 0 -1.9042969000000003
v 3.1953119999999995 0.2 -0.91210940000000029
v 3.1953119999999995 0 -0.91210940000000029
v 4.5273439999999994 0.2 -0.56835940000000029
v 4.5273439999999994 0 -0.56835940000000029
v 3.9550780000000003 0.2 0.050781200000000304
v 3.9550780000000003 0 0.050781200000000304
v 4.8984380000000005 0.2 0.6523437999999997
v 4.8984380000000005 0 0.6523437999999997
v 3.9785160000000008 0.2 1.3554688000000001
v 3.9785160000000008 0 1.3554688000000001
v 4.8515619999999995 0.2 2.4648438
v 4.8515619999999995 0 2.4648438
v 3.6347660000000008 0.2 2.6523438
v 3.6347660000000008 0 2.6523438
v 4.0039060000000006 0.2 3.7792969000000003
v 4.0039060000000006 0 3.7792969000000003
v 2.4121089999999992 0.2 3.5878905999999997
v 2.4121089999999992 0 3.5878905999999997
v 1.9511719999999997 0.2 4.53320312
v 1.9511719999999997 0 4.53320312
v 1.1738280000000003 0.2 4.08984375
v 1.1738280000000003 0 4.08984375
v 0.83398399999999917 0.2 4.64257812
v 0.83398399999999917 0 4.64257812
v 0.734375 0.2 4.8046875
v 0.734375 0 4.8046875
v 0.07226600000000083 0.2 3.7167969000000003
v 0.67773399999999917 0.2 4.32421875
v 0.67773399999999917 0 4.32421875
v 0.07226600000000083 0 3.7167969000000003
v 1.0703119999999995 0.2 3.6835937999999997
v 1.0703119999999995 0 3.6835937999999997
v 1.8222660000000008 0.2 4.11328125
v 1.8222660000000008 0 4.11328125
v 2.2363280000000003 0.2 3.265625
v 2.2363280000000003 0 3.265625
v 3.5722660000000008 0.2 3.4257812000000003
v 3.5722660000000008 0 3.4257812000000003
v 3.2402339999999992 0.2 2.4101562
v 3.2402339999999992 0 2.4101562
v 4.296875 0.2 2.2460938
v 4.296875 0 2.2460938
v 3.5546880000000005 0.2 1.3007811999999999
v 3.5546880000000005 0 1.3007811999999999
v 4.375 0.2 0.67382809999999971
v 4.375 0 0.67382809999999971
v 3.4902339999999992 0.2 0.11132809999999971
v 3.4902339999999992 0 0.11132809999999971
v 3.9667969999999997 0.2 -0.40429690000000029
v 3.9667969999999997 0 -0.40429690000000029
v 2.7617189999999994 0.2 -0.7148437999999997
v 2.7617189999999994 0 -0.7148437999999997
v 3.1855469999999997 0.2 -1.5605469000000003
v 3.1855469999999997 0 -1.5605469000000003
v 2.0253910000000008 0.2 -1.4628905999999997
v 2.0253910000000008 0 -1.4628905999999997
v 1.8789060000000006 0.2 -2.3046875
v 1.8789060000000006 0 -2.3046875
v 0.88867199999999968 0.2 -1.2304687999999997
v 0.88867199999999968 0 -1.2304687999999997
v -0.16210899999999917 0.2 -3.3320311999999994
v -0.16210899999999917 0 -3.3320311999999994
v -2.2910159999999991 0.2 -3.8867188000000006
v -2.2910159999999991 0 -3.8867188000000006
v -1.1191409999999991 0.2 -3.2695311999999994
v -1.1191409999999991 0 -3.2695311999999994
v -0.22070300000000032 0.2 -1.0136719000000003
v -0.22070300000000032 0 -1.0136719000000003
v -1.9375 0.2 -2.15625
v -1.9375 0 -2.15625
v -2.1328120000000013 0.2 -1.0292969000000003
v -2.1328120000000013 0 -1.0292969000000003
v -3.375 0.2 -1.8007812000000003
v -3.375 0 -1.8007812000000003
v -3.203125 0.2 -0.75195309999999971
v -3.203125 0 -0.75195309999999971
v -4.2441409999999991 0.2 -0.75195309999999971
v -4.2441409999999991 0 -0.75195309999999971
v -3.5195310000000006 0.2 0.050781200000000304
v -3.5195310000000006 0 0.050781200000000304
v -4.390625 0.2 0.4140625
v -4.390625 0 0.4140625
v -3.8496090000000009 0.2 0.92382809999999971
v -3.8496090000000009 0 0.92382809999999971
v -4.4746090000000009 0.2 1.6523438000000001
v -4.4746090000000009 0 1.6523438000000001
v -3.2851560000000006 0.2 2.2460938
v -3.2851560000000006 0 2.2460938
v -3.7636719999999997 0.2 3.140625
v -3.7636719999999997 0 3.140625
v -2.5957030000000003 0.2 3.3457030999999997
v -2.5957030000000003 0 3.3457030999999997
v -2.5957030000000003 0.2 3.9257812000000003
v -2.5957030000000003 0 3.9257812000000003
v -1.3378909999999991 0.2 3.5546875
v -1.3378909999999991 0 3.5546875
v -0.91992199999999968 0.2 4.34960938
v -0.91992199999999968 0 4.34960938
vn 0.6796875 0 1.0625
vn -0.86718748000000012 0 0.45507800000000032
vn 0.41601559999999971 0 1.4082030000000003
vn -0.7304687999999997 0 0
vn -0.2324218 0 1.3261719999999997
vn -0.98828130000000014 0 -0.52929699999999968
vn -0.6289062000000003 0 1.2578129999999987
vn -0.80273439999999985 0 -0.6875
vn -0.6289062999999997 0 0.66992199999999968
vn -0.3789062000000003 0 -0.90625
vn -0.99023440000000029 0 0.89257800000000032
vn 0 0 -1.3632810000000006
vn -1.3535155999999997 0 0.22070300000000032
vn 0.88867190000000029 0 -1.4238280000000003
vn -1.1464844000000003 0 -0.19726599999999905
vn 0.8671875 0 -1.3007810000000006
vn -1.2597655999999997 0 0.50195300000000032
vn -1.7753905999999997 0 3.3671870000000013
vn 1.2441405999999997 0 -4.7695310000000006
vn 1.8339843999999994 0 -0.91601600000000083
vn -1.2011718999999994 0 -1.109373999999999
vn 1.1699218999999994 0 -0.20312600000000103
vn -0.11914069999999999 0 -1.4179680000000001
vn 0.9921875 0 0.49609400000000115
vn 0.34375 0 -1.3320319999999999
vn 0.6191406000000006 0 0.572265999999999
vn 0.60156259999999939 0 -0.9433600000000002
vn 0.70312500000000044 0 0.91992199999999968
vn 1.109375 0 -0.87304599999999866
vn 0.1875 0 1.2167959999999987
vn 1.1269531000000002 0 -0.3691399999999998
vn -0.19140630000000058 0 1.5917970000000015
vn 0.94531251999999988 0 0.46093699999999949
vn -0.44335936999999959 0 0.77734399999999937
vn 0.55273436999999959 0 0.33984400000000115
vn 0.16210938000000041 0 0.09960899999999917
vn -0.70507811999999959 0 0.70507800000000032
vn 0.60742184999999971 0 -0.60546799999999834
vn -0.6406249500000003 0 -0.39257800000000032
vn 0.4296874500000003 0 -0.75195400000000134
vn -0.84765625 0 -0.41406199999999949
vn 0.1601562000000003 0 -1.3359380000000005
vn -1.0156250000000004 0 0.33203200000000166
vn -0.16406239999999972 0 -1.0566410000000008
vn -0.94531260000000028 0 0.74218699999999949
vn -0.62695310000000015 0 -0.82031199999999949
vn -0.5625 0 0.88476600000000083
vn -0.515625 0 -0.47656300000000051
vn -0.3105468999999994 0 1.2050780000000003
vn -0.8457031000000006 0 -0.42382800000000032
vn 0.097656300000000584 0 1.1601559999999989
vn -0.84179690000000029 0 0.1464850000000002
vn 1.0742187000000003 0 0.990234000000001
vn -2.1015623999999997 0 1.0507809999999989
vn -0.55468760000000117 0 2.128907
vn 0.61718760000000117 0 -1.171875
vn 2.2558592999999991 0 -0.89843799999999874
vn -1.1425780999999997 0 1.7167969999999997
vn 1.1269530999999997 0 0.19531200000000126
vn -0.7714843 0 1.2421879999999987
vn 1.0488281000000006 0 -0.171875
vn 0 0 1.0410159999999991
vn 0.8027343 0 -0.72460999999999842
vn 0.3632812999999997 0 0.87109399999999937
vn 0.50976559999999971 0 -0.541015999999999
vn 0.72851570000000043 0 0.625
vn 0.59375 0 -1.1894530000000003
vn 0.89453119999999986 0 0.47851599999999905
vn 0.20507809999999971 0 -1.1679689999999994
vn 0.5800781000000006 0 0
vn -0.3710937000000003 0 -1.2578120000000013
vn 0.79492188000000041 0 -0.41796899999999937
vn -0.63281248000000012 0 -0.99218800000000051
vn 0 1 0
g Outline2
f 1//1 2//1 3//1 4//1
f 2//2 5//2 6//2 3//2
f 5//3 7//3 8//3 6//3
f 7//4 9//4 10//4 8//4
f 9//5 11//5 12//5 10//5
f 11//6 13//6 14//6 12//6
f 13//7 15//7 16//7 14//7
f 15//8 17//8 18//8 16//8
f 17//9 19//9 20//9 18//9
f 19//10 21//10 22//10 20//10
f 21//11 23//11 24//11 22//11
f 23//12 25//12 26//12 24//12
f 25//13 27//13 28//13 26//13
f 27//14 29//14 30//14 28//14
f 29//15 31//15 32//15 30//15
f 31//16 33//16 34//16 32//16
f 33//17 35//17 36//17 34//17
f 35//18 37//18 38//18 36//18
f 37//19 39//19 40//19 38//19
f 39//20 41//20 42//20 40//20
f 41//21 43//21 44//21 42//21
f 43//22 45//22 46//22 44//22
f 45//23 47//23 48//23 46//23
f 47//24 49//24 50//24 48//24
f 49//25 51//25 52//25 50//25
f 51//26 53//26 54//26 52//26
f 53//27 55//27 56//27 54//27
f 55//28 57//28 58//28 56//28
f 57//29 59//29 60//29 58//29
f 59//30 61//30 62//30 60//30
f 61//31 63//31 64//31 62//31
f 63//32 65//32 66//32 64//32
f 65//33 67//33 68//33 66//33
f 67//34 69//34 70//34 68//34
f 69//35 71//35 72//35 70//35
f 71//36 73//36 74//36 72//36
f 73//37 1//37 4//37 74//37
f 75//38 76//38 77//38 78//38
f 76//39 79//39 80//39 77//39
f 79//40 81//40 82//40 80//40
f 81//41 83//41 84//41 82//41
f 83//42 85//42 86//42 84//42
f 85//43 87//43 88//43 86//43
f 87//44 89//44 90//44 88//44
f 89//45 91//45 92//45 90//45
f 91//46 93//46 94//46 92//46
f 93//47 95//47 96//47 94//47
f 95//48 97//48 98//48 96//48
f 97//49 99//49 100//49 98//49
f 99//50 101//50 102//50 100//50
f 101//51 103//51 104//51 102//51
f 103//52 105//52 106//52 104//52
f 105//53 107//53 108//53 106//53
f 107//54 109//54 110//54 108//54
f 109//55 111//55 112//55 110//55
f 111//56 113//56 114//56 112//56
f 113//57 115//57 116//57 114//57
f 115//58 117//58 118//58 116//58
f 117//59 119//59 120//59 118//59
f 119//60 121//60 122//60 120//60
f 121//61 123//61 124//61 122//61
f 123//62 125//62 126//62 124//62
f 125//63 127//63 128//63 126//63
f 127//64 129//64 130//64 128//64
f 129//65 131//65 132//65 130//65
f 131//66 133//66 134//66 132//66
f 133//67 135//67 136//67 134//67
f 135//68 137//68 138//68 136//68
f 137//69 139//69 140//69 138//69
f 139//70 141//70 142//70 140//70
f 141//71 143//71 144//71 142//71
f 143//72 145//72 146//72 144//72
f 145//73 75//73 78//73 146//73
f 33//74 115//74 113//74
f 35//74 33//74 113//74
f 1//74 73//74 71//74
f 37//74 35//74 113//74
f 37//74 113//74 111//74
f 39//74 37//74 111//74
f 39//74 111//74 109//74
f 41//74 39//74 109//74
f 41//74 109//74 107//74
f 43//74 41//74 107//74
f 43//74 107//74 105//74
f 45//74 43//74 105//74
f 45//74 105//74 103//74
f 47//74 45//74 103//74
f 47//74 103//74 101//74
f 49//74 47//74 101//74
f 49//74 101//74 99//74
f 51//74 49//74 99//74
f 51//74 99//74 97//74
f 53//74 51//74 97//74
f 53//74 97//74 95//74
f 55//74 53//74 95//74
f 55//74 95//74 93//74
f 57//74 55//74 93//74
f 57//74 93//74 91//74
f 59//74 57//74 91//74
f 59//74 91//74 89//74
f 61//74 59//74 89//74
f 61//74 89//74 87//74
f 63//74 61//74 87//74
f 63//74 87//74 85//74
f 65//74 63//74 85//74
f 65//74 85//74 83//74
f 67//74 65//74 83//74
f 67//74 83//74 81//74
f 69//74 67//74 81//74
f 69//74 81//74 79//74
f 71//74 69//74 79//74
f 71//74 79//74 76//74
f 1//74 71//74 76//74
f 1//74 76//74 75//74
f 1//74 75//74 145//74
f 117//74 115//74 33//74
f 117//74 33//74 31//74
f 119//74 117//74 31//74
f 119//74 31//74 29//74
f 121//74 119//74 29//74
f 121//74 29//74 27//74
f 123//74 121//74 27//74
f 123//74 27//74 25//74
f 125//74 123//74 25//74
f 125//74 25//74 23//74
f 127//74 125//74 23//74
f 127//74 23//74 21//74
f 129//74 127//74 21//74
f 129//74 21//74 19//74
f 131//74 129//74 19//74
f 131//74 19//74 17//74
f 133//74 131//74 17//74
f 133//74 17//74 15//74
f 135//74 133//74 15//74
f 135//74 15//74 13//74
f 137//74 135//74 13//74
f 137//74 13//74 11//74
f 139//74 137//74 11//74
f 139//74 11//74 9//74
f 141//74 139//74 9//74
f 141//74 9//74 7//74
f 143//74 141//74 7//74
f 143//74 7//74 5//74
f 145//74 143//74 5//74
f 145//74 5//74 2//74
f 145//74 2//74 1//74
